<svg width="60" height="60" viewBox="0 0 60 60" fill="none" xmlns="http://www.w3.org/2000/svg">
<circle cx="30" cy="30" r="30" fill="#1E2029"/>
<path d="M28.7235 16.0964C23.9968 16.8637 20.0915 20.163 18.5953 24.6595C17.8125 27.0151 17.7282 29.647 18.3573 32.0177C19.6234 36.7216 23.4601 40.2895 28.3323 41.2792C29.4065 41.494 32.1076 41.4711 33.2045 41.2409C37.7088 40.2663 41.2615 37.1666 42.7423 32.8926C43.8702 29.6625 43.6323 26.0637 42.09 23.0023C40.3252 19.4956 37.1485 17.0556 33.2429 16.2117C32.238 15.9892 29.7593 15.9277 28.7235 16.0964ZM27.1429 19.5648C27.4575 19.6723 27.7415 19.7873 27.7798 19.8105C27.8336 19.8643 26.7285 23.0947 26.6136 23.2096C26.5753 23.2557 25.7542 23.01 25.6238 22.9179C25.6084 22.9102 25.7082 22.6033 25.8386 22.235C25.969 21.8589 26.0533 21.5443 26.0382 21.5292C25.9539 21.4449 25.202 22.0512 24.4959 22.7724C23.1301 24.1611 22.2707 25.903 22.0405 27.7293L21.9867 28.1585L22.47 28.1968C22.8689 28.2274 22.9765 28.2657 23.1297 28.4425C23.3216 28.6727 23.3522 28.8491 23.2218 29.1254C23.1069 29.3711 22.8457 29.486 22.3853 29.486C21.9403 29.486 21.9554 29.44 22.1168 30.3377C22.7459 33.9365 25.608 36.7982 29.2065 37.42C29.6054 37.4889 29.9586 37.5427 29.9969 37.5427C30.0275 37.5427 30.0584 37.3356 30.0584 37.0822C30.0584 36.691 30.089 36.5835 30.2504 36.4299C30.4883 36.1842 30.8257 36.1842 31.102 36.4144C31.2784 36.568 31.3167 36.6752 31.3477 37.0667L31.3783 37.5349L31.7772 37.4889C32.9511 37.3585 34.4857 36.7754 35.5985 36.0309C36.6881 35.3097 37.9003 33.9133 38.5295 32.655C38.9207 31.8722 39.3428 30.3609 39.3428 29.7468V29.486H38.9288C38.2536 29.486 37.939 29.1022 38.1615 28.5729C38.2764 28.2966 38.5221 28.1817 39.0131 28.1817H39.366L39.3199 27.698C39.2201 26.6928 38.752 25.3196 38.1766 24.3755C38.0385 24.1376 37.7084 23.6771 37.4476 23.3397C37.0638 22.8564 36.9643 22.68 36.9643 22.4649C36.9643 22.0965 37.1868 21.8895 37.5706 21.8895C37.8392 21.8895 37.9158 21.9355 38.2304 22.2884C40.4865 24.7899 41.2615 28.6418 40.1871 31.9334C39.0669 35.3786 36.1359 37.949 32.5294 38.6702C31.6007 38.8544 29.7133 38.8544 28.8311 38.6702C25.7159 38.0105 23.2067 36.123 21.818 33.3991C20.5825 30.9668 20.3678 28.3043 21.1966 25.7568C21.864 23.7235 23.2914 21.7974 24.9869 20.6467C25.5932 20.2323 25.6238 20.2017 25.4474 20.1402C25.3476 20.1019 24.9947 19.9715 24.6724 19.8562C24.3423 19.7409 24.0738 19.6105 24.0738 19.5644C24.0738 19.5261 24.1427 19.2882 24.2348 19.0428L24.3958 18.5979L25.4853 18.9891C26.0765 19.1964 26.8283 19.4572 27.1429 19.5648ZM35.6139 23.5776C35.8442 23.662 35.99 23.9154 35.9823 24.2223C35.9746 24.4142 35.6677 24.7593 33.995 26.432L32.0155 28.4116L32.0078 28.8259C32 29.7008 31.2633 30.3067 30.404 30.1458C30.0739 30.0842 29.6135 29.693 29.4753 29.3553C29.3604 29.079 29.3449 28.6112 29.4448 28.3732C29.4985 28.2428 29.3066 28.0204 28.2476 26.9462C27.1429 25.8338 26.9893 25.6496 26.9893 25.4271C26.9893 25.0971 27.2811 24.8057 27.6107 24.8057C27.8332 24.8057 28.0251 24.9667 29.2068 26.141C30.2887 27.2074 30.611 27.4836 30.8257 27.522C31.0865 27.568 31.1097 27.5525 33.1276 25.5347C34.2477 24.4145 35.2224 23.5014 35.2913 23.5014C35.3609 23.501 35.5067 23.5316 35.6139 23.5776Z" fill="#F88D21"/>
<path d="M11.2445 23.3171C10.8533 23.5241 10.8684 24.0998 11.2677 24.3069C11.4596 24.4144 11.8125 24.4218 13.5927 24.4067C15.5339 24.3838 15.7104 24.3761 15.8562 24.238C16.1019 24.0155 16.0787 23.5628 15.8179 23.3554C15.6183 23.2018 15.5262 23.1944 13.5316 23.1944C11.843 23.2018 11.4135 23.225 11.2445 23.3171Z" fill="#F88D21"/>
<path d="M9.2188 28.2813C8.92707 28.5347 8.92707 28.9027 9.2188 29.1562L9.43355 29.3403L13.078 29.3175L16.7225 29.2946L16.8684 29.1105C17.0526 28.8802 17.0526 28.5579 16.8684 28.3277L16.7225 28.1435L13.078 28.1207L9.43355 28.0975L9.2188 28.2813Z" fill="#F88D21"/>
<path d="M11.2445 33.1381C10.8533 33.3452 10.8684 33.9209 11.2677 34.1279C11.4596 34.2355 11.8125 34.2428 13.5927 34.2277C15.5339 34.2049 15.7104 34.1971 15.8562 34.059C16.1019 33.8365 16.0787 33.3838 15.8179 33.1764C15.6183 33.0228 15.5262 33.0155 13.5316 33.0155C11.843 33.0228 11.4135 33.046 11.2445 33.1381Z" fill="#F88D21"/>
<circle cx="31" cy="40.4277" r="8" fill="#1E2029"/>
<circle cx="31" cy="40.4277" r="7" fill="#F07A3D"/>
<path d="M28.3774 43.9552L31.0003 46.5391L33.6232 43.9552H32.4974V41.1719H29.5032V43.9552H28.3774Z" fill="white"/>
<path d="M30.5965 36.8312C30.5965 37.8202 29.9711 38.3367 29.2876 38.3367C28.5676 38.3367 28.0002 37.7984 28.0002 36.9111C28.0002 36.0675 28.5164 35.4277 29.3238 35.4277C30.1383 35.4277 30.5965 36.0241 30.5965 36.8312ZM28.822 36.8821C28.822 37.3764 28.9889 37.7328 29.3091 37.7328C29.6219 37.7328 29.7745 37.4132 29.7745 36.8821C29.7745 36.4021 29.6437 36.0313 29.3017 36.0313C28.9746 36.0313 28.822 36.4093 28.822 36.8821ZM29.3456 40.315L32.0586 35.4277H32.655L29.9349 40.315H29.3456ZM34.0001 38.7948C34.0001 39.7838 33.3747 40.3003 32.6912 40.3003C31.9784 40.3003 31.4113 39.762 31.4039 38.8747C31.4039 38.0312 31.9201 37.3914 32.7274 37.3914C33.542 37.3914 34.0001 37.9878 34.0001 38.7948ZM32.2328 38.8457C32.2256 39.3401 32.3929 39.6965 32.7128 39.6965C33.0255 39.6965 33.1781 39.3769 33.1781 38.8457C33.1781 38.3657 33.0545 37.995 32.7128 37.995C32.3782 37.995 32.2328 38.3729 32.2328 38.8457Z" fill="white"/>
</svg>
