<svg width="60" height="60" viewBox="0 0 60 60" fill="none" xmlns="http://www.w3.org/2000/svg">
<circle cx="30" cy="30" r="30" fill="#1E2029"/>
<path d="M26 29H31H35V39H26V29Z" fill="white"/>
<path d="M34.6278 19.8262C32.7063 20.2996 31.065 21.4851 30.0001 23.0869C28.9351 21.4851 27.2938 20.2996 25.3723 19.8262C26.2349 18.148 27.9834 17 30.0001 17C32.0168 17 33.7653 18.148 34.6278 19.8262Z" fill="#F07A3D"/>
<path d="M19.6738 32.655C20.2402 27.9064 24.0064 24.1401 28.7551 23.5737C27.573 21.953 25.6595 20.8999 23.5 20.8999C19.9102 20.8999 17 23.8101 17 27.3999C17 29.5593 18.0531 31.4729 19.6738 32.655Z" fill="#F07A3D"/>
<path d="M40.326 32.655C41.9466 31.4729 42.9998 29.5593 42.9998 27.3999C42.9998 23.8101 40.0896 20.8999 36.4998 20.8999C34.3403 20.8999 32.4267 21.953 31.2446 23.5737C35.9933 24.1401 39.7595 27.9064 40.326 32.655Z" fill="#F07A3D"/>
<path d="M29.9999 42.9998C35.0257 42.9998 39.0999 38.9256 39.0999 33.8998C39.0999 28.874 35.0257 24.7998 29.9999 24.7998C24.9741 24.7998 20.8999 28.874 20.8999 33.8998C20.8999 38.9256 24.9741 42.9998 29.9999 42.9998ZM26.7499 31.6248C26.7499 31.0864 27.1864 30.6498 27.7249 30.6498H33.2499C33.6562 30.6498 34.0198 30.9016 34.1626 31.2819C34.3053 31.6615 34.198 32.0897 33.8934 32.3572L33.8924 32.3583L33.8765 32.3726C33.862 32.3857 33.8384 32.4074 33.807 32.4372C33.744 32.4969 33.6494 32.5892 33.531 32.7121C33.2939 32.9586 32.9639 33.326 32.6043 33.7992C31.8814 34.7503 31.0603 36.1007 30.6156 37.7313C30.4739 38.2509 29.9379 38.5572 29.4184 38.4155C28.8988 38.2738 28.5925 37.7378 28.7342 37.2183C29.2645 35.2739 30.2309 33.6994 31.0517 32.6192L31.0666 32.5998H27.7249C27.1864 32.5998 26.7499 32.1633 26.7499 31.6248Z" fill="#F88D21"/>
</svg>
