<svg width="110" height="110" viewBox="0 0 110 110" fill="none" xmlns="http://www.w3.org/2000/svg">
<g clip-path="url(#clip0_219_777)">
<path d="M-89 33L-86.4019 31.5L5.09808 189.983L2.5 191.483L-89 33Z" fill="url(#paint0_linear_219_777)" fill-opacity="0.5"/>
<path d="M-81.2058 28.5L-78.6077 27L12.8923 185.483L10.2942 186.983L-81.2058 28.5Z" fill="url(#paint1_linear_219_777)" fill-opacity="0.5"/>
<path d="M-73.4116 24L-70.8135 22.5L20.6865 180.983L18.0884 182.483L-73.4116 24Z" fill="url(#paint2_linear_219_777)" fill-opacity="0.5"/>
<path d="M-65.6173 19.5001L-63.0192 18.0001L28.4808 176.483L25.8827 177.983L-65.6173 19.5001Z" fill="url(#paint3_linear_219_777)" fill-opacity="0.5"/>
<path d="M-57.8231 15L-55.225 13.5L36.275 171.983L33.6769 173.483L-57.8231 15Z" fill="url(#paint4_linear_219_777)" fill-opacity="0.5"/>
<path d="M-50.0288 10.5L-47.4308 9L44.0692 167.483L41.4712 168.983L-50.0288 10.5Z" fill="url(#paint5_linear_219_777)" fill-opacity="0.5"/>
<path d="M-42.2346 6L-39.6365 4.5L51.8635 162.983L49.2654 164.483L-42.2346 6Z" fill="url(#paint6_linear_219_777)" fill-opacity="0.5"/>
<path d="M-34.4404 1.5L-31.8423 0L59.6577 158.483L57.0596 159.983L-34.4404 1.5Z" fill="url(#paint7_linear_219_777)" fill-opacity="0.5"/>
<path d="M-26.6462 -3L-24.0481 -4.5L67.4519 153.983L64.8538 155.483L-26.6462 -3Z" fill="url(#paint8_linear_219_777)" fill-opacity="0.5"/>
<path d="M-18.852 -7.5L-16.2539 -9L75.2461 149.483L72.648 150.983L-18.852 -7.5Z" fill="url(#paint9_linear_219_777)" fill-opacity="0.5"/>
<path d="M-11.0577 -11.9999L-8.45963 -13.4999L83.0404 144.983L80.4423 146.483L-11.0577 -11.9999Z" fill="url(#paint10_linear_219_777)" fill-opacity="0.5"/>
<path d="M-3.26349 -16.5L-0.665413 -18L90.8346 140.483L88.2365 141.983L-3.26349 -16.5Z" fill="url(#paint11_linear_219_777)" fill-opacity="0.5"/>
<path d="M4.53073 -21L7.12881 -22.5L98.6288 135.983L96.0307 137.483L4.53073 -21Z" fill="url(#paint12_linear_219_777)" fill-opacity="0.5"/>
<path d="M12.325 -25.5L14.923 -27L106.423 131.483L103.825 132.983L12.325 -25.5Z" fill="url(#paint13_linear_219_777)" fill-opacity="0.5"/>
<path d="M20.1192 -30L22.7173 -31.5L114.217 126.983L111.619 128.483L20.1192 -30Z" fill="url(#paint14_linear_219_777)" fill-opacity="0.5"/>
<path d="M27.9135 -34.4999L30.5115 -35.9999L122.012 122.483L119.413 123.983L27.9135 -34.4999Z" fill="url(#paint15_linear_219_777)" fill-opacity="0.5"/>
<path d="M35.7077 -39L38.3057 -40.5L129.806 117.983L127.208 119.483L35.7077 -39Z" fill="url(#paint16_linear_219_777)" fill-opacity="0.5"/>
<path d="M43.5019 -43.5L46.1 -45L137.6 113.483L135.002 114.983L43.5019 -43.5Z" fill="url(#paint17_linear_219_777)" fill-opacity="0.5"/>
<path d="M51.2961 -48L53.8942 -49.5L145.394 108.983L142.796 110.483L51.2961 -48Z" fill="url(#paint18_linear_219_777)" fill-opacity="0.5"/>
<path d="M59.0903 -52.5L61.6884 -54L153.188 104.483L150.59 105.983L59.0903 -52.5Z" fill="url(#paint19_linear_219_777)" fill-opacity="0.5"/>
<path d="M66.8846 -57L69.4827 -58.5L160.983 99.9827L158.385 101.483L66.8846 -57Z" fill="url(#paint20_linear_219_777)" fill-opacity="0.5"/>
<path d="M74.6788 -61.5L77.2769 -63L168.777 95.4827L166.179 96.9827L74.6788 -61.5Z" fill="url(#paint21_linear_219_777)" fill-opacity="0.5"/>
<path d="M82.473 -65.9999L85.0711 -67.4999L176.571 90.9827L173.973 92.4827L82.473 -65.9999Z" fill="url(#paint22_linear_219_777)" fill-opacity="0.5"/>
<path d="M90.2672 -70.5L92.8653 -72L184.365 86.4827L181.767 87.9827L90.2672 -70.5Z" fill="url(#paint23_linear_219_777)" fill-opacity="0.5"/>
<path d="M98.0615 -75L100.66 -76.5L192.16 81.9827L189.561 83.4827L98.0615 -75Z" fill="url(#paint24_linear_219_777)" fill-opacity="0.5"/>
<path d="M105.856 -79.5L108.454 -81L199.954 77.4827L197.356 78.9827L105.856 -79.5Z" fill="url(#paint25_linear_219_777)" fill-opacity="0.5"/>
</g>
<defs>
<linearGradient id="paint0_linear_219_777" x1="-172" y1="-204.5" x2="110" y2="116.5" gradientUnits="userSpaceOnUse">
<stop stop-color="#C4C4C4"/>
<stop offset="1" stop-color="#C4C4C4" stop-opacity="0"/>
</linearGradient>
<linearGradient id="paint1_linear_219_777" x1="-172" y1="-204.5" x2="110" y2="116.5" gradientUnits="userSpaceOnUse">
<stop stop-color="#C4C4C4"/>
<stop offset="1" stop-color="#C4C4C4" stop-opacity="0"/>
</linearGradient>
<linearGradient id="paint2_linear_219_777" x1="-172" y1="-204.5" x2="110" y2="116.5" gradientUnits="userSpaceOnUse">
<stop stop-color="#C4C4C4"/>
<stop offset="1" stop-color="#C4C4C4" stop-opacity="0"/>
</linearGradient>
<linearGradient id="paint3_linear_219_777" x1="-172" y1="-204.5" x2="110" y2="116.5" gradientUnits="userSpaceOnUse">
<stop stop-color="#C4C4C4"/>
<stop offset="1" stop-color="#C4C4C4" stop-opacity="0"/>
</linearGradient>
<linearGradient id="paint4_linear_219_777" x1="-172" y1="-204.5" x2="110" y2="116.5" gradientUnits="userSpaceOnUse">
<stop stop-color="#C4C4C4"/>
<stop offset="1" stop-color="#C4C4C4" stop-opacity="0"/>
</linearGradient>
<linearGradient id="paint5_linear_219_777" x1="-172" y1="-204.5" x2="110" y2="116.5" gradientUnits="userSpaceOnUse">
<stop stop-color="#C4C4C4"/>
<stop offset="1" stop-color="#C4C4C4" stop-opacity="0"/>
</linearGradient>
<linearGradient id="paint6_linear_219_777" x1="-172" y1="-204.5" x2="110" y2="116.5" gradientUnits="userSpaceOnUse">
<stop stop-color="#C4C4C4"/>
<stop offset="1" stop-color="#C4C4C4" stop-opacity="0"/>
</linearGradient>
<linearGradient id="paint7_linear_219_777" x1="-172" y1="-204.5" x2="110" y2="116.5" gradientUnits="userSpaceOnUse">
<stop stop-color="#C4C4C4"/>
<stop offset="1" stop-color="#C4C4C4" stop-opacity="0"/>
</linearGradient>
<linearGradient id="paint8_linear_219_777" x1="-172" y1="-204.5" x2="110" y2="116.5" gradientUnits="userSpaceOnUse">
<stop stop-color="#C4C4C4"/>
<stop offset="1" stop-color="#C4C4C4" stop-opacity="0"/>
</linearGradient>
<linearGradient id="paint9_linear_219_777" x1="-172" y1="-204.5" x2="110" y2="116.5" gradientUnits="userSpaceOnUse">
<stop stop-color="#C4C4C4"/>
<stop offset="1" stop-color="#C4C4C4" stop-opacity="0"/>
</linearGradient>
<linearGradient id="paint10_linear_219_777" x1="-172" y1="-204.5" x2="110" y2="116.5" gradientUnits="userSpaceOnUse">
<stop stop-color="#C4C4C4"/>
<stop offset="1" stop-color="#C4C4C4" stop-opacity="0"/>
</linearGradient>
<linearGradient id="paint11_linear_219_777" x1="-172" y1="-204.5" x2="110" y2="116.5" gradientUnits="userSpaceOnUse">
<stop stop-color="#C4C4C4"/>
<stop offset="1" stop-color="#C4C4C4" stop-opacity="0"/>
</linearGradient>
<linearGradient id="paint12_linear_219_777" x1="-172" y1="-204.5" x2="110" y2="116.5" gradientUnits="userSpaceOnUse">
<stop stop-color="#C4C4C4"/>
<stop offset="1" stop-color="#C4C4C4" stop-opacity="0"/>
</linearGradient>
<linearGradient id="paint13_linear_219_777" x1="-172" y1="-204.5" x2="110" y2="116.5" gradientUnits="userSpaceOnUse">
<stop stop-color="#C4C4C4"/>
<stop offset="1" stop-color="#C4C4C4" stop-opacity="0"/>
</linearGradient>
<linearGradient id="paint14_linear_219_777" x1="-172" y1="-204.5" x2="110" y2="116.5" gradientUnits="userSpaceOnUse">
<stop stop-color="#C4C4C4"/>
<stop offset="1" stop-color="#C4C4C4" stop-opacity="0"/>
</linearGradient>
<linearGradient id="paint15_linear_219_777" x1="-172" y1="-204.5" x2="110" y2="116.5" gradientUnits="userSpaceOnUse">
<stop stop-color="#C4C4C4"/>
<stop offset="1" stop-color="#C4C4C4" stop-opacity="0"/>
</linearGradient>
<linearGradient id="paint16_linear_219_777" x1="-172" y1="-204.5" x2="110" y2="116.5" gradientUnits="userSpaceOnUse">
<stop stop-color="#C4C4C4"/>
<stop offset="1" stop-color="#C4C4C4" stop-opacity="0"/>
</linearGradient>
<linearGradient id="paint17_linear_219_777" x1="-172" y1="-204.5" x2="110" y2="116.5" gradientUnits="userSpaceOnUse">
<stop stop-color="#C4C4C4"/>
<stop offset="1" stop-color="#C4C4C4" stop-opacity="0"/>
</linearGradient>
<linearGradient id="paint18_linear_219_777" x1="-172" y1="-204.5" x2="110" y2="116.5" gradientUnits="userSpaceOnUse">
<stop stop-color="#C4C4C4"/>
<stop offset="1" stop-color="#C4C4C4" stop-opacity="0"/>
</linearGradient>
<linearGradient id="paint19_linear_219_777" x1="-172" y1="-204.5" x2="110" y2="116.5" gradientUnits="userSpaceOnUse">
<stop stop-color="#C4C4C4"/>
<stop offset="1" stop-color="#C4C4C4" stop-opacity="0"/>
</linearGradient>
<linearGradient id="paint20_linear_219_777" x1="-172" y1="-204.5" x2="110" y2="116.5" gradientUnits="userSpaceOnUse">
<stop stop-color="#C4C4C4"/>
<stop offset="1" stop-color="#C4C4C4" stop-opacity="0"/>
</linearGradient>
<linearGradient id="paint21_linear_219_777" x1="-172" y1="-204.5" x2="110" y2="116.5" gradientUnits="userSpaceOnUse">
<stop stop-color="#C4C4C4"/>
<stop offset="1" stop-color="#C4C4C4" stop-opacity="0"/>
</linearGradient>
<linearGradient id="paint22_linear_219_777" x1="-172" y1="-204.5" x2="110" y2="116.5" gradientUnits="userSpaceOnUse">
<stop stop-color="#C4C4C4"/>
<stop offset="1" stop-color="#C4C4C4" stop-opacity="0"/>
</linearGradient>
<linearGradient id="paint23_linear_219_777" x1="-172" y1="-204.5" x2="110" y2="116.5" gradientUnits="userSpaceOnUse">
<stop stop-color="#C4C4C4"/>
<stop offset="1" stop-color="#C4C4C4" stop-opacity="0"/>
</linearGradient>
<linearGradient id="paint24_linear_219_777" x1="-172" y1="-204.5" x2="110" y2="116.5" gradientUnits="userSpaceOnUse">
<stop stop-color="#C4C4C4"/>
<stop offset="1" stop-color="#C4C4C4" stop-opacity="0"/>
</linearGradient>
<linearGradient id="paint25_linear_219_777" x1="-172" y1="-204.5" x2="110" y2="116.5" gradientUnits="userSpaceOnUse">
<stop stop-color="#C4C4C4"/>
<stop offset="1" stop-color="#C4C4C4" stop-opacity="0"/>
</linearGradient>
<clipPath id="clip0_219_777">
<rect width="110" height="110" fill="white"/>
</clipPath>
</defs>
</svg>
