<svg width="24" height="24" viewBox="0 0 24 24" fill="none" xmlns="http://www.w3.org/2000/svg">
<path fill-rule="evenodd" clip-rule="evenodd" d="M12.0217 0.0899658C5.40747 0.0899658 0.0439453 5.5439 0.0439453 12.2723C0.0439453 17.6548 3.47595 22.2213 8.23507 23.8321C8.83372 23.945 9.05347 23.5679 9.05347 23.2461C9.05347 22.9556 9.04237 21.996 9.03722 20.978C5.70497 21.715 5.00182 19.5406 5.00182 19.5406C4.45697 18.1325 3.67191 17.7581 3.67191 17.7581C2.58517 17.002 3.75383 17.0175 3.75383 17.0175C4.95661 17.1033 5.58992 18.2729 5.58992 18.2729C6.65822 20.1353 8.39197 19.5969 9.07547 19.2856C9.18297 18.4985 9.49342 17.9606 9.83592 17.6566C7.17552 17.3486 4.37882 16.304 4.37882 11.636C4.37882 10.3059 4.84672 9.21915 5.61292 8.366C5.48857 8.05895 5.07857 6.8201 5.72897 5.14205C5.72897 5.14205 6.73477 4.81464 9.02372 6.3908C9.97917 6.1209 11.0038 5.9855 12.0217 5.9809C13.0397 5.9855 14.0651 6.1209 15.0223 6.3908C17.3085 4.81464 18.3129 5.14205 18.3129 5.14205C18.9649 6.8201 18.5547 8.05895 18.4303 8.366C19.1983 9.21915 19.6631 10.3059 19.6631 11.636C19.6631 16.3151 16.861 17.3453 14.1938 17.6469C14.6235 18.025 15.0063 18.7663 15.0063 19.903C15.0063 21.5328 14.9924 22.8447 14.9924 23.2461C14.9924 23.5703 15.208 23.9501 15.8151 23.8305C20.5717 22.2178 23.9993 17.653 23.9993 12.2723C23.9993 5.5439 18.6366 0.0899658 12.0217 0.0899658Z" fill= 'rgb(92, 83, 155)'/>
<path fill-rule="evenodd" clip-rule="evenodd" d="M4.5803 17.5811C4.55392 17.6418 4.4603 17.6598 4.37501 17.6182C4.28814 17.5785 4.23934 17.496 4.26751 17.4353C4.29329 17.373 4.38711 17.3558 4.47379 17.3971C4.56086 17.4371 4.61045 17.5204 4.5803 17.5811Z" fill= 'rgb(92, 83, 155)'/>
<path fill-rule="evenodd" clip-rule="evenodd" d="M5.06567 18.1315C5.00852 18.1854 4.89685 18.1604 4.82109 18.0752C4.74274 17.9903 4.72806 17.8767 4.78598 17.822C4.84489 17.7682 4.95318 17.7934 5.03172 17.8783C5.11007 17.9643 5.12537 18.077 5.06567 18.1315Z" fill= 'rgb(92, 83, 155)'/>
<path fill-rule="evenodd" clip-rule="evenodd" d="M5.53775 18.8331C5.46435 18.8849 5.34435 18.8363 5.27015 18.728C5.1968 18.6197 5.1968 18.4897 5.27175 18.4377C5.34615 18.3856 5.46435 18.4324 5.53955 18.54C5.6127 18.6499 5.6127 18.78 5.53775 18.8331Z" fill= 'rgb(92, 83, 155)'/>
<path fill-rule="evenodd" clip-rule="evenodd" d="M6.18487 19.5109C6.11922 19.5846 5.97937 19.5648 5.87702 19.4643C5.77232 19.3661 5.74317 19.2267 5.80902 19.1531C5.87547 19.0792 6.01607 19.1 6.11922 19.1997C6.22317 19.2977 6.25487 19.4381 6.18487 19.5109Z" fill= 'rgb(92, 83, 155)'/>
<path fill-rule="evenodd" clip-rule="evenodd" d="M7.07744 19.9045C7.04849 19.9999 6.91379 20.0433 6.77814 20.0028C6.64269 19.961 6.55399 19.8492 6.58139 19.7528C6.60954 19.6568 6.74484 19.6116 6.88149 19.655C7.01674 19.6965 7.10564 19.8075 7.07744 19.9045Z" fill= 'rgb(92, 83, 155)'/>
<path fill-rule="evenodd" clip-rule="evenodd" d="M8.05767 19.9776C8.06102 20.0781 7.94597 20.1614 7.80357 20.163C7.66037 20.1664 7.54452 20.0851 7.54297 19.9863C7.54297 19.8848 7.65542 19.8023 7.79862 19.7999C7.94102 19.797 8.05767 19.8777 8.05767 19.9776Z" fill= 'rgb(92, 83, 155)'/>
<path fill-rule="evenodd" clip-rule="evenodd" d="M8.96991 19.8196C8.98696 19.9176 8.88796 20.0183 8.74656 20.0449C8.60751 20.071 8.47881 20.0104 8.46116 19.9132C8.44386 19.8127 8.54466 19.7121 8.68351 19.686C8.82511 19.661 8.95186 19.7199 8.96991 19.8196Z" fill= 'rgb(92, 83, 155)'/>
</svg>
