<svg width="33" height="33" viewBox="0 0 33 33" fill="none" xmlns="http://www.w3.org/2000/svg">
<path d="M26.3918 7.85805C26.3838 7.8425 26.3706 7.83032 26.3545 7.82368C24.4892 6.96472 22.5208 6.35222 20.4985 6.0015C20.4802 5.99807 20.4612 6.00055 20.4443 6.00857C20.4274 6.01659 20.4134 6.02976 20.4044 6.04619C20.1364 6.53446 19.8931 7.03599 19.6754 7.54887C17.4955 7.21675 15.2782 7.21675 13.0983 7.54887C12.8792 7.03469 12.632 6.53303 12.3578 6.04619C12.3484 6.03011 12.3344 6.01725 12.3176 6.00928C12.3008 6.00131 12.282 5.9986 12.2636 6.0015C10.2412 6.35149 8.27265 6.96403 6.40762 7.82373C6.39166 7.83052 6.37818 7.84212 6.36907 7.85692C2.63938 13.4472 1.61767 18.9 2.11889 24.2853C2.1203 24.2985 2.12434 24.3113 2.13077 24.3229C2.1372 24.3345 2.14589 24.3447 2.15632 24.3528C4.32808 25.9668 6.75722 27.1987 9.34009 27.9961C9.35828 28.0015 9.3777 28.0013 9.39574 27.9954C9.41379 27.9894 9.42959 27.9781 9.44102 27.9629C9.99577 27.2053 10.4873 26.4031 10.9107 25.5644C10.9165 25.5529 10.9198 25.5402 10.9204 25.5274C10.921 25.5145 10.9189 25.5016 10.9142 25.4896C10.9095 25.4776 10.9023 25.4667 10.8931 25.4577C10.8839 25.4487 10.8729 25.4417 10.8608 25.4373C10.0857 25.1396 9.33526 24.7808 8.6166 24.3641C8.60354 24.3564 8.59258 24.3456 8.58467 24.3327C8.57677 24.3197 8.57216 24.305 8.57127 24.2898C8.57037 24.2746 8.57322 24.2595 8.57954 24.2457C8.58587 24.2319 8.59549 24.2198 8.60755 24.2106C8.75834 24.0972 8.90923 23.9793 9.05323 23.8602C9.06602 23.8496 9.0815 23.8428 9.09792 23.8406C9.11435 23.8384 9.13106 23.8408 9.14619 23.8476C13.8544 26.0042 18.9517 26.0042 23.6042 23.8476C23.6194 23.8403 23.6363 23.8376 23.653 23.8396C23.6696 23.8416 23.6854 23.8484 23.6984 23.859C23.8424 23.9782 23.9933 24.0972 24.1452 24.2106C24.1573 24.2197 24.167 24.2317 24.1734 24.2454C24.1799 24.2592 24.1828 24.2743 24.182 24.2895C24.1812 24.3047 24.1768 24.3194 24.1689 24.3324C24.1611 24.3455 24.1503 24.3563 24.1373 24.3641C23.4202 24.7843 22.6691 25.1429 21.892 25.4362C21.8799 25.4408 21.8689 25.4479 21.8598 25.457C21.8507 25.4662 21.8436 25.4772 21.8389 25.4893C21.8343 25.5014 21.8323 25.5143 21.833 25.5273C21.8337 25.5402 21.8371 25.5528 21.8431 25.5644C22.2735 26.3984 22.7643 27.1996 23.3116 27.9615C23.3227 27.9772 23.3384 27.9889 23.3565 27.9951C23.3746 28.0012 23.3942 28.0015 23.4125 27.9959C26 27.2013 28.4334 25.9692 30.6079 24.3528C30.6185 24.3451 30.6273 24.3352 30.6337 24.3237C30.6402 24.3123 30.6441 24.2996 30.6453 24.2865C31.2453 18.0605 29.6407 12.6523 26.3918 7.85805ZM11.6138 21.0062C10.1963 21.0062 9.02827 19.7006 9.02827 18.0972C9.02827 16.4937 10.1736 15.188 11.6138 15.188C13.0652 15.188 14.2219 16.5051 14.1993 18.0971C14.1993 19.7006 13.0539 21.0062 11.6138 21.0062ZM21.1732 21.0062C19.7558 21.0062 18.5878 19.7006 18.5878 18.0972C18.5878 16.4937 19.7331 15.188 21.1732 15.188C22.6248 15.188 23.7814 16.5051 23.7588 18.0971C23.7588 19.7006 22.6248 21.0062 21.1732 21.0062Z" fill="white"/>
</svg>
