<svg width="42" height="42" viewBox="0 0 42 42" fill="none" xmlns="http://www.w3.org/2000/svg">
<path fill-rule="evenodd" clip-rule="evenodd" d="M21.0378 0.157349C9.46283 0.157349 0.0766602 9.70173 0.0766602 21.4763C0.0766602 30.8958 6.08266 38.8872 14.4111 41.7062C15.4588 41.9036 15.8433 41.2437 15.8433 40.6806C15.8433 40.1722 15.8239 38.4928 15.8149 36.7114C9.98345 38.0011 8.75294 34.196 8.75294 34.196C7.79946 31.7318 6.4256 31.0765 6.4256 31.0765C4.5238 29.7533 6.56896 29.7805 6.56896 29.7805C8.67382 29.9306 9.78212 31.9775 9.78212 31.9775C11.6516 35.2368 14.6857 34.2945 15.8818 33.7497C16.07 32.3722 16.6132 31.431 17.2126 30.899C12.5569 30.3599 7.66269 28.5318 7.66269 20.3628C7.66269 18.0352 8.48152 16.1334 9.82237 14.6404C9.60476 14.1031 8.88726 11.9351 10.0255 8.9985C10.0255 8.9985 11.7856 8.42553 15.7913 11.1838C17.4633 10.7115 19.2564 10.4745 21.0378 10.4665C22.8192 10.4745 24.6137 10.7115 26.2888 11.1838C30.2896 8.42553 32.0474 8.9985 32.0474 8.9985C33.1883 11.9351 32.4704 14.1031 32.2528 14.6404C33.5968 16.1334 34.4101 18.0352 34.4101 20.3628C34.4101 28.5512 29.5065 30.3542 24.8389 30.882C25.5908 31.5436 26.2607 32.841 26.2607 34.8301C26.2607 37.6822 26.2364 39.978 26.2364 40.6806C26.2364 41.2479 26.6137 41.9127 27.6762 41.7034C36.0002 38.8811 41.9986 30.8926 41.9986 21.4763C41.9986 9.70173 32.6138 0.157349 21.0378 0.157349Z" fill="#636363"/>
<path fill-rule="evenodd" clip-rule="evenodd" d="M8.01571 30.767C7.96955 30.8732 7.80571 30.9046 7.65646 30.8319C7.50443 30.7623 7.41903 30.618 7.46832 30.5117C7.51345 30.4026 7.67763 30.3726 7.82931 30.445C7.98169 30.5149 8.06847 30.6607 8.01571 30.767Z" fill="#636363"/>
<path fill-rule="evenodd" clip-rule="evenodd" d="M8.86474 31.73C8.76473 31.8242 8.56931 31.7805 8.43672 31.6315C8.2996 31.4828 8.27392 31.2841 8.37527 31.1884C8.47837 31.0941 8.66788 31.1382 8.80533 31.2869C8.94244 31.4373 8.96922 31.6346 8.86474 31.73Z" fill="#636363"/>
<path fill-rule="evenodd" clip-rule="evenodd" d="M9.6913 32.958C9.56285 33.0487 9.35285 32.9637 9.223 32.7741C9.09464 32.5845 9.09464 32.3571 9.2258 32.2661C9.356 32.175 9.56285 32.2569 9.69445 32.4451C9.82246 32.6375 9.82246 32.8652 9.6913 32.958Z" fill="#636363"/>
<path fill-rule="evenodd" clip-rule="evenodd" d="M10.8235 34.1442C10.7086 34.2731 10.4639 34.2384 10.2848 34.0626C10.1016 33.8907 10.0505 33.6467 10.1658 33.5179C10.2821 33.3887 10.5281 33.425 10.7086 33.5995C10.8905 33.771 10.946 34.0168 10.8235 34.1442Z" fill="#636363"/>
<path fill-rule="evenodd" clip-rule="evenodd" d="M12.3855 34.8331C12.3348 35.0001 12.0991 35.076 11.8617 35.005C11.6246 34.932 11.4694 34.7363 11.5174 34.5676C11.5666 34.3995 11.8034 34.3204 12.0425 34.3964C12.2792 34.4691 12.4348 34.6633 12.3855 34.8331Z" fill="#636363"/>
<path fill-rule="evenodd" clip-rule="evenodd" d="M14.1009 34.9609C14.1068 35.1366 13.9054 35.2824 13.6562 35.2852C13.4056 35.2913 13.2029 35.149 13.2002 34.976C13.2002 34.7984 13.397 34.654 13.6476 34.6498C13.8968 34.6448 14.1009 34.786 14.1009 34.9609Z" fill="#636363"/>
<path fill-rule="evenodd" clip-rule="evenodd" d="M15.6972 34.6842C15.727 34.8558 15.5537 35.032 15.3063 35.0785C15.063 35.1241 14.8377 35.0182 14.8069 34.848C14.7766 34.6722 14.953 34.4961 15.196 34.4505C15.4438 34.4067 15.6656 34.5098 15.6972 34.6842Z" fill="#636363"/>
</svg>
