<svg width="114" height="114" viewBox="0 0 114 114" fill="none" xmlns="http://www.w3.org/2000/svg">
<circle cx="57" cy="57" r="54.625" fill="#1E2029"/>
<g clip-path="url(#clip0_147:108)">
<path d="M37.2335 51.6069C36.0392 51.6069 35.0682 50.6357 35.0682 49.4408C35.0682 48.2475 36.0393 47.2762 37.2335 47.2762C38.4276 47.2762 39.3988 48.2475 39.3988 49.4408C39.3988 50.6358 38.4276 51.6069 37.2335 51.6069Z" fill="#434A54"/>
<path d="M37.2335 48.3586H76.2016V46.194H37.2335C35.4395 46.194 33.9858 47.6476 33.9858 49.4407V54.5839H36.1511V52.5035C36.4899 52.6225 36.8533 52.6892 37.2334 52.6892C38.6472 52.6892 39.8494 51.7847 40.2953 50.5247H37.2335C36.6367 50.5247 36.1512 50.0391 36.1512 49.4408C36.1512 48.8441 36.6367 48.3586 37.2335 48.3586Z" fill="#F88D21"/>
<path d="M69.9475 41.3238C72.0185 42.5195 72.7294 45.1673 71.5328 47.2382L53.1319 79.1119C51.9361 81.1829 49.2884 81.8922 47.2167 80.6957L38.4641 75.643L35.7568 52.9146L47.1588 33.1655C48.3545 31.0945 51.0023 30.3852 53.074 31.5809L69.9475 41.3238Z" fill="#EFD139"/>
<path d="M78.7454 47.6857C80.437 49.3758 80.437 52.118 78.7454 53.8096L52.7225 79.8325C51.0316 81.5241 48.2894 81.5241 46.5986 79.8325L35.3387 68.5734L35.6608 57.0897L58.8439 33.9066C60.534 32.2157 63.2762 32.2157 64.9678 33.9066L78.7454 47.6857Z" fill="#9F1C22"/>
<path d="M71.0901 40.0304L39.6598 71.4631L35.0665 66.8706L66.4975 35.4379L71.0901 40.0304Z" fill="#BB6309"/>
<path d="M77.287 80.8355C77.287 82.032 76.3174 83.0001 75.1208 83.0001H36.1512C34.9554 83.0001 33.9859 82.0321 33.9859 80.8355V52.6892C33.9859 51.4927 34.9555 50.5247 36.1512 50.5247H75.1208C76.3174 50.5247 77.287 51.4927 77.287 52.6892V80.8355Z" fill="#F88D21"/>
<path d="M64.2966 74.3401H78.3692C78.9675 74.3401 79.4514 73.8562 79.4514 73.2579V60.2675C79.4514 59.6692 78.9674 59.1853 78.3692 59.1853H64.2966C64.2966 59.1853 59.9644 64.3729 59.9644 66.7628C59.9644 69.1526 64.2966 74.3401 64.2966 74.3401Z" fill="#EFD139"/>
<path d="M70.7917 66.7627C70.7917 67.9592 69.8222 68.9273 68.6257 68.9273C67.4307 68.9273 66.4611 67.9593 66.4611 66.7627C66.4611 65.5661 67.4307 64.5981 68.6257 64.5981C69.8222 64.5981 70.7917 65.5661 70.7917 66.7627Z" fill="#F88D21"/>
</g>
<defs>
<clipPath id="clip0_147:108">
<rect width="52" height="52" fill="white" transform="translate(31 31)"/>
</clipPath>
</defs>
</svg>
