<svg width="215" height="49" viewBox="0 0 215 49" fill="none" xmlns="http://www.w3.org/2000/svg">
<path fill-rule="evenodd" clip-rule="evenodd" d="M27.2676 22.5147L26.4591 21.3388L46.6955 0L19.8427 19.6277L7.10476 7.00672L19.9178 26.0671L20.7018 27.243L0 48.6798L27.3426 28.9441L40.0807 41.5506L27.2676 22.5147ZM40.4236 8.08469L28.0516 21.4367L40.1296 39.3946L33.1229 22.0247L40.4236 8.08469ZM18.9376 27.4636L5.75708 40.6442L13.8418 26.8756L6.83504 9.53021L18.9376 27.4636Z" fill="url(#paint0_linear_246_806)"/>
<path d="M46.6953 32.6199V31.9759L53.0893 24.3399L46.6953 16.7039V16.0599H49.7773L54.9293 22.1549L60.0583 16.0599H63.1403V16.7039L56.7233 24.3399L63.1403 31.9529V32.6199H60.0583L54.9063 26.5249L49.7773 32.6199H46.6953Z" fill="white"/>
<path d="M65.6364 32.6199V16.0599H80.8394V18.8429H68.4194V22.9599H78.4244V25.7199H68.4194V29.8369H80.8394V32.6199H65.6364Z" fill="white"/>
<path d="M83.1997 32.6199V16.0599H86.3507L96.9767 28.7099V16.0599H99.7597V32.6199H96.6087L85.9597 19.9469V32.6199H83.1997Z" fill="white"/>
<path d="M105.395 32.6199C104.828 32.6199 104.307 32.4819 103.831 32.2059C103.356 31.9299 102.98 31.5542 102.704 31.0789C102.428 30.6035 102.29 30.0822 102.29 29.5149V19.1649C102.29 18.5975 102.428 18.0762 102.704 17.6009C102.98 17.1255 103.356 16.7499 103.831 16.4739C104.307 16.1979 104.828 16.0599 105.395 16.0599H115.745C116.313 16.0599 116.826 16.1979 117.286 16.4739C117.762 16.7499 118.137 17.1255 118.413 17.6009C118.705 18.0762 118.85 18.5975 118.85 19.1649V29.5149C118.85 30.0822 118.705 30.6035 118.413 31.0789C118.137 31.5542 117.762 31.9299 117.286 32.2059C116.826 32.4819 116.313 32.6199 115.745 32.6199H105.395ZM105.464 29.8369H115.653C115.761 29.8369 115.853 29.7985 115.929 29.7219C116.021 29.6452 116.067 29.5455 116.067 29.4229V19.2569C116.067 19.1342 116.021 19.0345 115.929 18.9579C115.853 18.8812 115.761 18.8429 115.653 18.8429H105.464C105.357 18.8429 105.257 18.8812 105.165 18.9579C105.089 19.0345 105.05 19.1342 105.05 19.2569V29.4229C105.05 29.5455 105.089 29.6452 105.165 29.7219C105.257 29.7985 105.357 29.8369 105.464 29.8369Z" fill="white"/>
<path d="M129.773 32.6199L120.182 16.0599H123.402L131.061 29.3769L138.743 16.0599H141.94L132.349 32.6199H129.773Z" fill="white"/>
<path d="M143.778 32.6199V16.0599H158.981V18.8429H146.561V22.9599H156.566V25.7199H146.561V29.8369H158.981V32.6199H143.778Z" fill="white"/>
<path d="M174.727 32.6199L169.644 26.5479H173.255L177.832 31.9759V32.6199H174.727ZM161.341 32.6199V16.0829H174.796C175.364 16.0829 175.877 16.2285 176.337 16.5199C176.813 16.7959 177.188 17.1715 177.464 17.6469C177.756 18.1069 177.901 18.6205 177.901 19.1879V23.7419C177.901 24.2939 177.756 24.8075 177.464 25.2829C177.188 25.7582 176.813 26.1339 176.337 26.4099C175.877 26.6859 175.364 26.8239 174.796 26.8239L164.101 26.8469V32.6199H161.341ZM164.515 24.0409H174.704C174.812 24.0409 174.904 24.0025 174.98 23.9259C175.072 23.8492 175.118 23.7495 175.118 23.6269V19.2569C175.118 19.1495 175.072 19.0575 174.98 18.9809C174.904 18.8889 174.812 18.8429 174.704 18.8429H164.515C164.408 18.8429 164.308 18.8889 164.216 18.9809C164.14 19.0575 164.101 19.1495 164.101 19.2569V23.6269C164.101 23.7495 164.14 23.8492 164.216 23.9259C164.308 24.0025 164.408 24.0409 164.515 24.0409Z" fill="white"/>
<path d="M183.334 32.6199C182.766 32.6199 182.245 32.4819 181.77 32.2059C181.31 31.9299 180.942 31.5542 180.666 31.0789C180.39 30.6035 180.252 30.0822 180.252 29.5149V28.4109H183.012V29.4229C183.012 29.5455 183.05 29.6452 183.127 29.7219C183.203 29.7985 183.303 29.8369 183.426 29.8369H193.592C193.714 29.8369 193.814 29.7985 193.891 29.7219C193.983 29.6452 194.029 29.5455 194.029 29.4229V26.1339C194.029 26.0265 193.983 25.9345 193.891 25.8579C193.814 25.7659 193.714 25.7199 193.592 25.7199H183.334C182.766 25.7199 182.245 25.5819 181.77 25.3059C181.31 25.0299 180.942 24.6619 180.666 24.2019C180.39 23.7265 180.252 23.2052 180.252 22.6379V19.1649C180.252 18.5975 180.39 18.0762 180.666 17.6009C180.942 17.1255 181.31 16.7499 181.77 16.4739C182.245 16.1979 182.766 16.0599 183.334 16.0599H193.707C194.274 16.0599 194.788 16.1979 195.248 16.4739C195.723 16.7499 196.099 17.1255 196.375 17.6009C196.666 18.0762 196.812 18.5975 196.812 19.1649V20.2689H194.029V19.2569C194.029 19.1342 193.983 19.0345 193.891 18.9579C193.814 18.8812 193.714 18.8429 193.592 18.8429H183.426C183.303 18.8429 183.203 18.8812 183.127 18.9579C183.05 19.0345 183.012 19.1342 183.012 19.2569V22.5459C183.012 22.6532 183.05 22.7529 183.127 22.8449C183.203 22.9215 183.303 22.9599 183.426 22.9599H193.707C194.274 22.9599 194.788 23.0979 195.248 23.3739C195.723 23.6499 196.099 24.0255 196.375 24.5009C196.666 24.9609 196.812 25.4745 196.812 26.0419V29.5149C196.812 30.0822 196.666 30.6035 196.375 31.0789C196.099 31.5542 195.723 31.9299 195.248 32.2059C194.788 32.4819 194.274 32.6199 193.707 32.6199H183.334Z" fill="white"/>
<path d="M199.346 32.6199V16.0599H214.549V18.8429H202.129V22.9599H212.134V25.7199H202.129V29.8369H214.549V32.6199H199.346Z" fill="white"/>
<defs>
<linearGradient id="paint0_linear_246_806" x1="46.6955" y1="24.3399" x2="-0.00443291" y2="24.2113" gradientUnits="userSpaceOnUse">
<stop stop-color="#FF006E"/>
<stop offset="1" stop-color="#FE8F10"/>
</linearGradient>
</defs>
</svg>
