<svg width="29" height="22" viewBox="0 0 29 22" fill="none" xmlns="http://www.w3.org/2000/svg">
<path d="M24.3918 1.85805C24.3838 1.8425 24.3706 1.83032 24.3545 1.82368C22.4892 0.964724 20.5208 0.352223 18.4985 0.00150237C18.4802 -0.00192585 18.4612 0.00054731 18.4443 0.00857012C18.4274 0.0165929 18.4134 0.0297569 18.4044 0.04619C18.1364 0.534458 17.8931 1.03599 17.6754 1.54887C15.4955 1.21675 13.2782 1.21675 11.0983 1.54887C10.8792 1.03469 10.632 0.533031 10.3578 0.04619C10.3484 0.0301141 10.3344 0.0172532 10.3176 0.00928254C10.3008 0.00131184 10.282 -0.00139929 10.2636 0.00150237C8.24117 0.351487 6.27265 0.964034 4.40762 1.82373C4.39166 1.83052 4.37818 1.84212 4.36907 1.85692C0.639377 7.4472 -0.382326 12.9 0.118887 18.2853C0.120297 18.2985 0.124337 18.3113 0.130767 18.3229C0.137197 18.3345 0.145886 18.3447 0.156316 18.3528C2.32808 19.9668 4.75722 21.1987 7.34009 21.9961C7.35828 22.0015 7.3777 22.0013 7.39574 21.9954C7.41379 21.9894 7.42959 21.9781 7.44102 21.9629C7.99577 21.2053 8.48731 20.4031 8.91066 19.5644C8.91647 19.5529 8.9198 19.5402 8.9204 19.5274C8.92101 19.5145 8.91889 19.5016 8.91418 19.4896C8.90946 19.4776 8.90227 19.4667 8.89307 19.4577C8.88387 19.4487 8.87287 19.4417 8.8608 19.4373C8.08567 19.1396 7.33526 18.7808 6.6166 18.3641C6.60354 18.3564 6.59258 18.3456 6.58467 18.3327C6.57677 18.3197 6.57216 18.305 6.57127 18.2898C6.57037 18.2746 6.57322 18.2595 6.57954 18.2457C6.58587 18.2319 6.59549 18.2198 6.60755 18.2106C6.75834 18.0972 6.90923 17.9793 7.05323 17.8602C7.06602 17.8496 7.0815 17.8428 7.09792 17.8406C7.11435 17.8384 7.13106 17.8408 7.14619 17.8476C11.8544 20.0042 16.9517 20.0042 21.6042 17.8476C21.6194 17.8403 21.6363 17.8376 21.653 17.8396C21.6696 17.8416 21.6854 17.8484 21.6984 17.859C21.8424 17.9782 21.9933 18.0972 22.1452 18.2106C22.1573 18.2197 22.167 18.2317 22.1734 18.2454C22.1799 18.2592 22.1828 18.2743 22.182 18.2895C22.1812 18.3047 22.1768 18.3194 22.1689 18.3324C22.1611 18.3455 22.1503 18.3563 22.1373 18.3641C21.4202 18.7843 20.6691 19.1429 19.892 19.4362C19.8799 19.4408 19.8689 19.4479 19.8598 19.457C19.8507 19.4662 19.8436 19.4772 19.8389 19.4893C19.8343 19.5014 19.8323 19.5143 19.833 19.5273C19.8337 19.5402 19.8371 19.5528 19.8431 19.5644C20.2735 20.3984 20.7643 21.1996 21.3116 21.9615C21.3227 21.9772 21.3384 21.9889 21.3565 21.9951C21.3746 22.0012 21.3942 22.0015 21.4125 21.9959C24 21.2013 26.4334 19.9692 28.6079 18.3528C28.6185 18.3451 28.6273 18.3352 28.6337 18.3237C28.6402 18.3123 28.6441 18.2996 28.6453 18.2865C29.2453 12.0605 27.6407 6.65235 24.3918 1.85805ZM9.61379 15.0062C8.19627 15.0062 7.02827 13.7006 7.02827 12.0972C7.02827 10.4937 8.17361 9.188 9.61379 9.188C11.0652 9.188 12.2219 10.5051 12.1993 12.0971C12.1993 13.7006 11.0539 15.0062 9.61379 15.0062ZM19.1732 15.0062C17.7558 15.0062 16.5878 13.7006 16.5878 12.0972C16.5878 10.4937 17.7331 9.188 19.1732 9.188C20.6248 9.188 21.7814 10.5051 21.7588 12.0971C21.7588 13.7006 20.6248 15.0062 19.1732 15.0062Z" fill="white"/>
</svg>
