<svg width="60" height="60" viewBox="0 0 60 60" fill="none" xmlns="http://www.w3.org/2000/svg">
<circle cx="30" cy="30" r="30" fill="#1E2029"/>
<path d="M27.3331 16.6665H19.3331C17.8604 16.6665 16.6665 17.8604 16.6665 19.3331V40.6665C16.6665 42.1392 17.8604 43.3331 19.3331 43.3331H27.3331C28.8059 43.3331 29.9998 42.1392 29.9998 40.6665V19.3331C29.9998 17.8604 28.8059 16.6665 27.3331 16.6665Z" fill="#F07A3D"/>
<path d="M43.3335 40.6667V32.6667C43.3335 31.1939 42.1396 30 40.6669 30H19.3335C17.8608 30 16.6669 31.1939 16.6669 32.6667V40.6667C16.6669 42.1395 17.8608 43.3333 19.3335 43.3333H40.6669C42.1396 43.3333 43.3335 42.1395 43.3335 40.6667Z" fill="#FCD419"/>
<path d="M41.9609 23.696L36.304 18.0392C35.2627 16.9978 33.5742 16.9978 32.5328 18.0392L17.4479 33.1241C16.4065 34.1655 16.4065 35.8539 17.4479 36.8953L23.1047 42.5522C24.1461 43.5936 25.8346 43.5936 26.876 42.5522L41.9609 27.4672C43.0023 26.4258 43.0023 24.7374 41.9609 23.696Z" fill="#A58904"/>
<path d="M29.9998 40.6667V30H19.3331C18.6259 30 17.9476 30.2809 17.4475 30.781C16.9475 31.2811 16.6665 31.9594 16.6665 32.6667V40.6667C16.6665 41.3739 16.9475 42.0522 17.4475 42.5523C17.9476 43.0524 18.6259 43.3333 19.3331 43.3333H27.3331C28.0404 43.3333 28.7187 43.0524 29.2188 42.5523C29.7189 42.0522 29.9998 41.3739 29.9998 40.6667Z" fill="#D36329"/>
<path d="M30 30V39.428L39.428 30H30Z" fill="#FFE464"/>
<path d="M23.3334 37.9999C24.0697 37.9999 24.6666 37.403 24.6666 36.6666C24.6666 35.9302 24.0697 35.3333 23.3334 35.3333C22.597 35.3333 22 35.9302 22 36.6666C22 37.403 22.597 37.9999 23.3334 37.9999Z" fill="#201854"/>
<path d="M20.5722 30H30.0002V20.572L20.5722 30Z" fill="#FD9C69"/>
</svg>
