<svg width="60" height="60" viewBox="0 0 60 60" fill="none" xmlns="http://www.w3.org/2000/svg">
<circle cx="30" cy="30" r="30" fill="#1E2029"/>
<path d="M38.1965 36.8853C40.7316 36.8853 42.7867 34.8302 42.7867 32.2951C42.7867 29.7601 40.7316 27.705 38.1965 27.705C35.6614 27.705 33.6063 29.7601 33.6063 32.2951C33.6063 34.8302 35.6614 36.8853 38.1965 36.8853Z" fill="#FCD419"/>
<path d="M27.7048 26.3934C30.2399 26.3934 32.295 24.3383 32.295 21.8032C32.295 19.2682 30.2399 17.2131 27.7048 17.2131C25.1697 17.2131 23.1146 19.2682 23.1146 21.8032C23.1146 24.3383 25.1697 26.3934 27.7048 26.3934Z" fill="#FCD419"/>
<path d="M17.213 24.4263V27.705C18.4304 27.705 19.5979 28.1886 20.4588 29.0494C21.3196 29.9102 21.8032 31.0778 21.8032 32.2951C21.8032 33.5125 21.3196 34.6801 20.4588 35.5409C19.5979 36.4017 18.4304 36.8853 17.213 36.8853V40.164C17.213 40.8596 17.4894 41.5268 17.9813 42.0187C18.4732 42.5106 19.1403 42.787 19.8359 42.787H23.1147C23.1147 41.5696 23.5982 40.402 24.4591 39.5412C25.3199 38.6804 26.4874 38.1968 27.7048 38.1968C28.9222 38.1968 30.0898 38.6804 30.9506 39.5412C31.8114 40.402 32.295 41.5696 32.295 42.787H35.5737C36.2693 42.787 36.9365 42.5106 37.4284 42.0187C37.9203 41.5268 38.1966 40.8596 38.1966 40.164V24.4263C38.1966 23.7306 37.9203 23.0635 37.4284 22.5716C36.9365 22.0797 36.2693 21.8033 35.5737 21.8033H19.8359C19.1403 21.8033 18.4732 22.0797 17.9813 22.5716C17.4894 23.0635 17.213 23.7306 17.213 24.4263Z" fill="#F07A3D"/>
<path d="M33.6063 32.2951C33.6063 33.5125 34.0899 34.6801 34.9508 35.5409C35.8116 36.4017 36.9791 36.8853 38.1965 36.8853V27.705C36.9791 27.705 35.8116 28.1885 34.9508 29.0494C34.0899 29.9102 33.6063 31.0777 33.6063 32.2951Z" fill="#FD9C69"/>
<path d="M27.7048 26.3935C28.9222 26.3935 30.0897 25.9099 30.9505 25.0491C31.8113 24.1882 32.295 23.0207 32.295 21.8033H23.1146C23.1146 23.0207 23.5982 24.1882 24.4591 25.0491C25.3199 25.9099 26.4874 26.3935 27.7048 26.3935Z" fill="#FD9C69"/>
</svg>
