<svg width="42" height="42" viewBox="0 0 42 42" fill="none" xmlns="http://www.w3.org/2000/svg">
<path fill-rule="evenodd" clip-rule="evenodd" d="M0 21C0 9.40205 9.40205 0 21 0C32.5979 0 42 9.40205 42 21C42 32.5979 32.5979 42 21 42C9.40205 42 0 32.5979 0 21ZM29.658 9.1H13.042C11.6408 9.1 10.5 10.227 10.5 11.6235V28.1855C10.5 29.582 11.6408 30.709 13.042 30.709H27.1036L26.4464 28.4428L28.0336 29.9005L29.534 31.2725L32.2 33.6V11.6235C32.2 10.227 31.0592 9.1 29.658 9.1Z" fill="#636363"/>
<path fill-rule="evenodd" clip-rule="evenodd" d="M24.8717 25.0985C24.8717 25.0985 24.4253 24.5717 24.0533 24.1062C25.6777 23.653 26.2977 22.6485 26.2977 22.6485C25.7893 22.9792 25.3057 23.212 24.8717 23.3712C24.2517 23.6285 23.6565 23.8 23.0737 23.898C21.8833 24.1185 20.7921 24.0572 19.8621 23.8857C19.1553 23.751 18.5477 23.555 18.0392 23.359C17.7541 23.2487 17.4441 23.114 17.1341 22.9425C17.0969 22.918 17.0597 22.9057 17.0225 22.8812C16.9977 22.869 16.9853 22.8567 16.9729 22.8445C16.7497 22.722 16.6257 22.6362 16.6257 22.6362C16.6257 22.6362 17.2209 23.6162 18.7957 24.0817C18.4236 24.5472 17.9649 25.0985 17.9649 25.0985C15.2245 25.0127 14.1829 23.2365 14.1829 23.2365C14.1829 19.292 15.9685 16.0947 15.9685 16.0947C17.7541 14.7717 19.4529 14.8085 19.4529 14.8085L19.5769 14.9555C17.3449 15.5925 16.3157 16.5602 16.3157 16.5602C16.3157 16.5602 16.5885 16.4132 17.0473 16.205C18.3741 15.6292 19.4281 15.47 19.8621 15.4332C19.9365 15.421 19.9985 15.4087 20.0728 15.4087C20.8293 15.3107 21.6849 15.2862 22.5777 15.3842C23.7557 15.519 25.0204 15.862 26.3101 16.5602C26.3101 16.5602 25.3305 15.6415 23.2225 15.0045L23.3961 14.8085C23.3961 14.8085 25.0949 14.7717 26.8805 16.0947C26.8805 16.0947 28.666 19.292 28.666 23.2365C28.666 23.2365 27.6121 25.0127 24.8717 25.0985ZM19.4549 19.6C18.7537 19.6 18.2001 20.2306 18.2001 21C18.2001 21.7693 18.7659 22.4 19.4549 22.4C20.1561 22.4 20.7098 21.7693 20.7098 21C20.722 20.2306 20.1561 19.6 19.4549 19.6ZM23.9452 19.6C23.244 19.6 22.6904 20.2306 22.6904 21C22.6904 21.7693 23.2564 22.4 23.9452 22.4C24.6465 22.4 25.2001 21.7693 25.2001 21C25.2001 20.2306 24.6465 19.6 23.9452 19.6Z" fill="#636363"/>
</svg>
