<svg width="60" height="60" viewBox="0 0 60 60" fill="none" xmlns="http://www.w3.org/2000/svg">
<circle cx="30" cy="30" r="30" fill="#1E2029"/>
<path d="M41.1974 37.7745L36.885 30.3033C36.7717 30.0997 36.6112 29.9263 36.417 29.7976C36.2228 29.6689 36.0006 29.5886 35.769 29.5635C35.5373 29.5384 35.3031 29.5693 35.0858 29.6534C34.8686 29.7375 34.6747 29.8726 34.5204 30.0472C33.9729 30.718 33.2832 31.2589 32.5011 31.6305C31.719 32.0021 30.864 32.1953 29.9982 32.196C29.1322 32.1966 28.277 32.0048 27.4943 31.6344C26.7116 31.264 26.0211 30.7242 25.4726 30.0542C25.3182 29.88 25.1242 29.7454 24.9071 29.6616C24.6899 29.5777 24.4558 29.5472 24.2244 29.5724C23.993 29.5977 23.771 29.678 23.577 29.8067C23.383 29.9354 23.2227 30.1087 23.1095 30.312L18.8022 37.7745C18.7437 37.8834 18.7133 38.0051 18.7137 38.1287C18.7108 38.2258 18.7273 38.3226 18.7622 38.4132C18.7971 38.5039 18.8498 38.5867 18.9172 38.6567C18.9845 38.7268 19.0651 38.7827 19.1543 38.8213C19.2435 38.8597 19.3395 38.8801 19.4367 38.881L23.2577 38.9401L25.2051 42.2152C25.2782 42.3179 25.368 42.4077 25.4706 42.4808C25.6437 42.5743 25.8462 42.5973 26.0359 42.5451C26.2256 42.4928 26.3878 42.3694 26.4886 42.2005L29.9998 36.1222L33.5111 42.2005C33.6119 42.3694 33.774 42.4928 33.9637 42.5451C34.1534 42.5973 34.3559 42.5743 34.529 42.4808C34.6317 42.4077 34.7214 42.3179 34.7946 42.2152L36.742 38.9401L40.563 38.881C40.6601 38.88 40.7561 38.8597 40.8453 38.8212C40.9345 38.7827 41.0152 38.7268 41.0825 38.6567C41.1498 38.5867 41.2025 38.5039 41.2374 38.4132C41.2723 38.3225 41.2888 38.2258 41.2859 38.1286C41.2864 38.0051 41.2559 37.8833 41.1974 37.7745Z" fill="#FCD419"/>
<path d="M29.9932 35.1652C31.7475 35.1652 33.4625 34.645 34.9211 33.6703C36.3798 32.6957 37.5167 31.3104 38.1881 29.6896C38.8595 28.0688 39.0351 26.2853 38.6929 24.5646C38.3506 22.844 37.5058 21.2635 36.2653 20.023C35.0248 18.7825 33.4443 17.9377 31.7236 17.5954C30.003 17.2532 28.2195 17.4288 26.5987 18.1002C24.9779 18.7716 23.5926 19.9085 22.6179 21.3672C21.6433 22.8259 21.123 24.5408 21.123 26.2951C21.123 28.6476 22.0576 30.9038 23.721 32.5672C25.3845 34.2307 27.6406 35.1652 29.9932 35.1652Z" fill="#F07A3D"/>
<path d="M29.9937 35.1649C31.4602 35.1653 32.9039 34.8017 34.1953 34.1066C35.4867 33.4115 36.5852 32.4067 37.3925 31.1822L36.8851 30.3032C36.7718 30.0997 36.6113 29.9263 36.4171 29.7976C36.2229 29.6689 36.0006 29.5886 35.769 29.5635C35.5374 29.5384 35.3031 29.5693 35.0859 29.6534C34.8687 29.7375 34.6747 29.8725 34.5205 30.0471C33.973 30.718 33.2833 31.2589 32.5012 31.6305C31.7191 32.0021 30.8641 32.1953 29.9983 32.1959C29.1323 32.1966 28.2771 32.0048 27.4944 31.6344C26.7117 31.264 26.0211 30.7242 25.4727 30.0541C25.3183 29.88 25.1243 29.7454 24.9072 29.6615C24.69 29.5777 24.4559 29.5471 24.2245 29.5724C23.9931 29.5977 23.7711 29.678 23.5771 29.8067C23.3831 29.9354 23.2228 30.1087 23.1096 30.312L22.6012 31.1928C23.409 32.4143 24.5071 33.4165 25.7972 34.1097C27.0873 34.8029 28.5291 35.1654 29.9937 35.1649Z" fill="#FD9C69"/>
<path d="M29.9939 28.7639L27.5564 30.0451L28.0226 27.3314L26.0514 25.4101L28.7751 25.0139L29.9939 22.5451L31.2126 25.0139L33.9364 25.4101L31.9651 27.3314L32.4314 30.0451L29.9939 28.7639Z" fill="#201854"/>
</svg>
