<svg width="114" height="114" viewBox="0 0 114 114" fill="none" xmlns="http://www.w3.org/2000/svg">
<circle cx="57" cy="57" r="54.625" fill="#1E2029"/>
<path d="M64.8939 66.7362V61.9237H48.8991V66.7363C48.8991 67.561 48.3318 68.2773 47.5289 68.4662L36.5333 71.0532C34.9278 71.4312 33.7931 72.8638 33.7931 74.5133V82.3612C33.7931 82.852 34.1909 83.2499 34.6818 83.2499H79.1113C79.6022 83.2499 80 82.852 80 82.3612V74.5133C80 72.8638 78.8653 71.4312 77.2597 71.0534L66.2641 68.4663C65.4613 68.2772 64.8939 67.5609 64.8939 66.7362Z" fill="#E6AF78"/>
<path d="M77.2595 71.0532L66.264 68.4661C66.0979 68.4271 65.9452 68.3606 65.8023 68.2803L56.8965 73.4754L48.3381 68.0291C48.1165 68.2376 47.8415 68.3926 47.5291 68.4661L36.5335 71.0532C34.9279 71.4311 33.7932 72.8638 33.7932 74.5133V82.3614C33.7932 82.8522 34.191 83.2501 34.6819 83.2501H79.1113C79.6022 83.2501 80 82.8523 80 82.3614V74.5133C80 72.8638 78.8653 71.4311 77.2595 71.0532Z" fill="#F88D21"/>
<path d="M64.7199 68.9118L56.8965 73.4754L48.9978 68.449C49.5755 72.2981 52.8864 75.2526 56.8965 75.2526C60.745 75.2525 63.9566 72.5332 64.7199 68.9118Z" fill="#D5DCEC"/>
<path d="M48.8991 66.7362C48.8991 67.3326 48.5996 67.8694 48.1315 68.1938C58.6736 73.4753 64.8937 63.0317 64.8937 63.0317V61.9236H48.8991V66.7362Z" fill="#D29B6E"/>
<path d="M45.3448 41.0416L46.1193 58.0773C46.1916 59.6688 46.972 61.1445 48.2464 62.1004L51.9205 64.856C52.8433 65.5481 53.9659 65.9224 55.1195 65.9224H58.6738C59.8273 65.9224 60.9499 65.5483 61.8728 64.856L65.5469 62.1004C66.8215 61.1445 67.6017 59.6688 67.674 58.0773L68.4483 41.0416H45.3448V41.0416Z" fill="#F0C087"/>
<path d="M45.3448 41.0416L46.1191 58.0771C46.1915 59.6686 46.9718 61.1443 48.2463 62.1004L51.9204 64.856C52.8432 65.5481 53.9657 65.9224 55.1194 65.9224H56.8966C54.2307 65.0337 52.4536 57.9251 52.4536 57.9251V48.2268C52.4536 47.5587 52.9632 47.0096 53.6281 46.9452C58.6056 46.4631 64.2298 45.2132 68.4482 42.2637V41.0419H45.3448V41.0416Z" fill="#E6AF78"/>
<path d="M43.5676 40.1531V41.0417L44.4563 50.8163H46.2335L48.0107 45.4847C48.0107 45.4847 59.5624 45.4847 65.7825 41.9304L67.5597 50.8163H69.3369L70.2256 41.0417V40.1531C70.2256 35.2455 66.2472 31.2672 61.3397 31.2672H52.4539C47.546 31.2672 43.5676 35.2456 43.5676 40.1531Z" fill="#5A4146"/>
<path d="M70.1696 52.2132L69.1661 56.2273C69.0472 56.703 68.6199 57.0365 68.1295 57.0365C67.5908 57.0365 67.1363 56.6354 67.0696 56.1008L66.5563 51.9953C66.4192 50.8974 67.2751 49.9279 68.3816 49.9279H68.385C69.5818 49.9276 70.4599 51.0522 70.1696 52.2132Z" fill="#F0C087"/>
<path d="M43.6235 52.2132L44.627 56.2273C44.7458 56.703 45.1732 57.0365 45.6636 57.0365C46.2023 57.0365 46.6568 56.6354 46.7235 56.1008L47.2367 51.9953C47.3739 50.8974 46.5179 49.9279 45.4115 49.9279H45.4081C44.2113 49.9276 43.3332 51.0522 43.6235 52.2132Z" fill="#E6AF78"/>
<path d="M40.3165 77.4828L34.5585 72.3103C34.076 72.9213 33.7932 73.6899 33.7932 74.5131V82.3612C33.7932 82.8521 34.191 83.2499 34.6819 83.2499H41.7907V80.7883C41.7905 79.5271 41.2547 78.3254 40.3165 77.4828Z" fill="#EFD139"/>
<path d="M73.4764 77.4828L79.2345 72.3103C79.7171 72.9213 79.9999 73.6899 79.9999 74.5131V82.3612C79.9999 82.8521 79.6021 83.2499 79.1112 83.2499H72.0024V80.7883C72.0024 79.5271 72.5383 78.3254 73.4764 77.4828Z" fill="#EFD139"/>
<path d="M56.8965 77.0297C61.8498 77.0297 65.9443 73.323 66.5765 68.5397L66.2639 68.4661C66.0978 68.4271 65.9451 68.3606 65.8022 68.2803L64.7188 68.9123C63.9533 72.5292 60.7378 75.2526 56.8965 75.2526C52.8936 75.2526 49.5779 72.2931 48.9983 68.4494L48.338 68.0292C48.1165 68.2379 47.8414 68.3928 47.5291 68.4662L47.2164 68.5398C47.8486 73.323 51.9432 77.0297 56.8965 77.0297Z" fill="#FFC36E"/>
<path d="M48.7743 66.1654L56.8965 73.4753C56.8965 73.4753 54.6217 74.6236 51.8147 76.938C51.2356 77.4154 50.3598 77.2221 50.0491 76.5388L46.2332 68.1437L47.4403 66.333C47.741 65.8821 48.3715 65.8031 48.7743 66.1654Z" fill="#E4EAF6"/>
<path d="M65.0187 66.1654L56.8965 73.4753C56.8965 73.4753 59.1712 74.6236 61.9783 76.938C62.5573 77.4154 63.4332 77.2221 63.7438 76.5388L67.5598 68.1437L66.3526 66.333C66.0519 65.8821 65.4213 65.8031 65.0187 66.1654Z" fill="#E4EAF6"/>
</svg>
