<svg width="42" height="42" viewBox="0 0 42 42" fill="#F88D21" xmlns="http://www.w3.org/2000/svg">
<path fill-rule="evenodd" clip-rule="evenodd" d="M42 21C42 32.5979 32.5979 42 21 42C9.40205 42 0 32.5979 0 21C0 9.40205 9.40205 0 21 0C32.5979 0 42 9.40205 42 21ZM14.0626 19.0763C11.9589 19.9948 9.79746 20.9386 7.82097 22.0273C6.78892 22.7829 8.16058 23.3174 9.44746 23.8188C9.65204 23.8985 9.85443 23.9774 10.0447 24.0561C10.2031 24.1049 10.3641 24.1561 10.5273 24.2081C11.9585 24.6641 13.5544 25.1725 14.9439 24.4077C17.2264 23.0965 19.3804 21.5807 21.5328 20.0659C22.2379 19.5696 22.9429 19.0735 23.6522 18.5847C23.6855 18.5635 23.7229 18.5392 23.764 18.5126C24.3681 18.1209 25.7271 17.24 25.2244 18.4538C24.0358 19.7537 22.7626 20.9044 21.4826 22.0614C20.6198 22.8411 19.7539 23.6237 18.9087 24.4567C18.1725 25.0548 17.408 26.2577 18.2324 27.0953C20.131 28.4245 22.0594 29.7214 23.9865 31.0176C24.6137 31.4394 25.2408 31.8611 25.8666 32.2839C26.9272 33.1307 28.5849 32.4457 28.8181 31.1224C28.9218 30.5137 29.0259 29.905 29.1301 29.2963C29.7055 25.9322 30.281 22.5669 30.7895 19.1918C30.8586 18.6623 30.9369 18.133 31.0153 17.6033C31.2053 16.3196 31.3955 15.0343 31.4549 13.7437C31.3018 12.4557 29.7401 12.7389 28.8711 13.0286C24.404 14.7283 19.9816 16.5541 15.5767 18.4121C15.0777 18.6331 14.5718 18.854 14.0626 19.0763Z" fill="#636363"/>
</svg>
