<svg width="42" height="42" viewBox="0 0 42 42" fill="none" xmlns="http://www.w3.org/2000/svg">
<path fill-rule="evenodd" clip-rule="evenodd" d="M0 21C0 9.40205 9.40205 0 21 0C32.5979 0 42 9.40205 42 21C42 32.5979 32.5979 42 21 42C9.40205 42 0 32.5979 0 21ZM20.371 17.0691L20.4151 17.7957L19.6807 17.7068C17.0073 17.3657 14.6717 16.2089 12.6886 14.2663L11.7192 13.3024L11.4695 14.0142C10.9406 15.6009 11.2785 17.2767 12.3802 18.4037C12.9678 19.0265 12.8355 19.1155 11.822 18.7448C11.4695 18.6261 11.161 18.5372 11.1317 18.5817C11.0288 18.6854 11.3813 20.035 11.6604 20.5688C12.0424 21.3103 12.8208 22.037 13.6728 22.467L14.3926 22.8081L13.5406 22.8229C12.718 22.8229 12.6886 22.8378 12.7768 23.1492C13.0706 24.1131 14.231 25.1363 15.5236 25.5812L16.4344 25.8927L15.6412 26.3672C14.466 27.0493 13.0853 27.4349 11.7045 27.4646C11.0435 27.4794 10.5 27.5387 10.5 27.5832C10.5 27.7315 12.2921 28.5619 13.335 28.8882C16.4637 29.8521 20.1801 29.4369 22.971 27.7908C24.954 26.6193 26.937 24.291 27.8624 22.037C28.3619 20.8358 28.8614 18.641 28.8614 17.5881C28.8614 16.906 28.9054 16.817 29.728 16.0013C30.2127 15.5268 30.6681 15.0077 30.7563 14.8594C30.9031 14.5777 30.8885 14.5777 30.1393 14.8298C28.8908 15.2747 28.7144 15.2154 29.3314 14.548C29.7867 14.0735 30.3302 13.2134 30.3302 12.9613C30.3302 12.9167 30.1099 12.9909 29.8602 13.1244C29.5958 13.2727 29.0083 13.4951 28.5675 13.6286L27.7743 13.8807L27.0546 13.3914C26.658 13.1244 26.0998 12.8278 25.806 12.7389C25.0569 12.5312 23.9111 12.5609 23.2355 12.7982C21.3993 13.4655 20.2388 15.1857 20.371 17.0691Z" fill="#636363"/>
</svg>
