<svg width="80" height="80" viewBox="0 0 80 80" fill="none" xmlns="http://www.w3.org/2000/svg">
<circle cx="40.0001" cy="40" r="38.3333" fill="#1E2029"/>
<path fill-rule="evenodd" clip-rule="evenodd" d="M21.7544 40.1019C21.7544 49.173 28.3426 56.716 36.9591 58.2456V45.0677H32.3977V40H36.9591V35.9449C36.9591 31.3835 39.8981 28.8504 44.0551 28.8504C45.3718 28.8504 46.7919 29.0526 48.1087 29.2549V33.9181H45.7778C43.5473 33.9181 43.0409 35.0326 43.0409 36.4528V40H47.9064L47.096 45.0677H43.0409V58.2456C51.6574 56.716 58.2456 49.1745 58.2456 40.1019C58.2456 30.0105 50.0351 21.7544 40 21.7544C29.9649 21.7544 21.7544 30.0105 21.7544 40.1019Z" fill="#F88D21"/>
</svg>
