<svg width="80" height="80" viewBox="0 0 80 80" fill="none" xmlns="http://www.w3.org/2000/svg">
<circle cx="40.0001" cy="40" r="38.3333" fill="#1E2029"/>
<g clip-path="url(#clip0_308_49)">
<path fill-rule="evenodd" clip-rule="evenodd" d="M58.2456 40C58.2456 50.0761 50.0761 58.2456 40 58.2456C29.9239 58.2456 21.7544 50.0761 21.7544 40C21.7544 29.9239 29.9239 21.7544 40 21.7544C50.0761 21.7544 58.2456 29.9239 58.2456 40ZM40.6538 35.2242C38.8794 35.9616 35.3322 37.4897 30.0136 39.8069C29.15 40.1505 28.6969 40.4866 28.6558 40.815C28.5859 41.3715 29.2822 41.5904 30.228 41.8869C30.3572 41.928 30.491 41.969 30.6278 42.0146C31.5599 42.3172 32.8128 42.6715 33.4635 42.6852C34.055 42.6973 34.7149 42.454 35.4432 41.9553C40.4121 38.5997 42.9771 36.9043 43.1383 36.8678C43.2523 36.842 43.4104 36.8085 43.5169 36.9043C43.6233 36.9986 43.6126 37.178 43.602 37.2267C43.5321 37.5201 40.8043 40.0578 39.3903 41.3715C38.9494 41.7805 38.6377 42.0709 38.5738 42.1378C38.4309 42.2853 38.2849 42.4267 38.145 42.562C37.2784 43.3952 36.6307 44.0216 38.1815 45.0434C38.9266 45.5345 39.5226 45.9405 40.1171 46.3449C40.7663 46.7874 41.414 47.2283 42.2533 47.7787C42.4662 47.9186 42.67 48.0631 42.8691 48.2045C43.6248 48.7442 44.3045 49.2277 45.1438 49.1517C45.6303 49.1061 46.1351 48.6484 46.3905 47.2815C46.9942 44.049 48.1832 37.0488 48.4584 34.1629C48.4751 33.9233 48.4649 33.6826 48.428 33.4453C48.4058 33.2536 48.3125 33.0772 48.1664 32.9511C47.949 32.7732 47.6115 32.7352 47.4594 32.7383C46.7737 32.7504 45.7215 33.1169 40.6538 35.2242V35.2242Z" fill="#F88D21"/>
</g>
<defs>
<clipPath id="clip0_308_49">
<rect width="36.4912" height="36.4912" fill="white" transform="translate(21.7544 21.7544)"/>
</clipPath>
</defs>
</svg>
