<svg width="80" height="80" viewBox="0 0 80 80" fill="none" xmlns="http://www.w3.org/2000/svg">
<circle cx="40.0001" cy="40" r="38.3333" fill="#1E2029"/>
<g clip-path="url(#clip0_308_45)">
<path d="M40 21.7544C29.9242 21.7544 21.7544 29.9242 21.7544 40C21.7544 50.0758 29.9242 58.2456 40 58.2456C50.0758 58.2456 58.2456 50.0758 58.2456 40C58.2456 29.9242 50.0758 21.7544 40 21.7544ZM48.7685 35.5078C48.7807 35.6993 48.7807 35.8988 48.7807 36.0943C48.7807 42.073 44.2275 48.9599 35.907 48.9599C33.3412 48.9599 30.9627 48.2146 28.959 46.9317C29.3255 46.9724 29.6758 46.9887 30.0504 46.9887C32.1682 46.9887 34.115 46.2719 35.6667 45.0583C33.6792 45.0176 32.0094 43.7143 31.4392 41.9223C32.1357 42.0241 32.7629 42.0241 33.4796 41.8409C32.4563 41.633 31.5365 41.0772 30.8765 40.2679C30.2164 39.4587 29.8569 38.4459 29.859 37.4016V37.3446C30.4577 37.6827 31.1623 37.8904 31.8994 37.9189C31.2798 37.5059 30.7715 36.9464 30.4199 36.2899C30.0682 35.6335 29.884 34.9004 29.8835 34.1557C29.8835 33.3127 30.1034 32.5429 30.4984 31.875C31.6343 33.2733 33.0517 34.4169 34.6585 35.2316C36.2654 36.0462 38.0256 36.5136 39.8249 36.6034C39.1855 33.5285 41.4825 31.0401 44.2437 31.0401C45.547 31.0401 46.7199 31.5858 47.5467 32.4655C48.5689 32.2741 49.5464 31.8913 50.4179 31.3781C50.0799 32.4248 49.3712 33.3086 48.4305 33.8665C49.3427 33.7688 50.2224 33.5163 51.037 33.162C50.422 34.0661 49.6523 34.8684 48.7685 35.5078V35.5078Z" fill="#F88D21"/>
</g>
<defs>
<clipPath id="clip0_308_45">
<rect width="36.4912" height="36.4912" fill="white" transform="translate(21.7544 21.7544)"/>
</clipPath>
</defs>
</svg>
