<svg width="24" height="24" viewBox="0 0 24 24" fill="none" xmlns="http://www.w3.org/2000/svg">
<path fill-rule="evenodd" clip-rule="evenodd" d="M0 12C0 5.3726 5.3726 0 12 0C18.6274 0 24 5.3726 24 12C24 18.6274 18.6274 24 12 24C5.3726 24 0 18.6274 0 12ZM16.9475 5.2H7.45255C6.6519 5.2 6 5.844 6 6.642V16.106C6 16.904 6.6519 17.548 7.45255 17.548H15.4878L15.1123 16.253L16.0192 17.086L16.8766 17.87L18.4 19.2V6.642C18.4 5.844 17.7481 5.2 16.9475 5.2Z"  fill= 'rgb(92, 83, 155)'/>
<path fill-rule="evenodd" clip-rule="evenodd" d="M14.2124 14.342C14.2124 14.342 13.9573 14.041 13.7447 13.775C14.6729 13.516 15.0272 12.942 15.0272 12.942C14.7367 13.131 14.4604 13.264 14.2124 13.355C13.8581 13.502 13.518 13.6 13.1849 13.656C12.5047 13.782 11.8812 13.747 11.3497 13.649C10.9459 13.572 10.5987 13.46 10.3081 13.348C10.1452 13.285 9.96804 13.208 9.79089 13.11C9.76964 13.096 9.74839 13.089 9.72714 13.075C9.71294 13.068 9.70589 13.061 9.69879 13.054C9.57124 12.984 9.50039 12.935 9.50039 12.935C9.50039 12.935 9.84049 13.495 10.7404 13.761C10.5278 14.027 10.2656 14.342 10.2656 14.342C8.69969 14.293 8.10449 13.278 8.10449 13.278C8.10449 11.024 9.12484 9.19699 9.12484 9.19699C10.1452 8.44099 11.1159 8.462 11.1159 8.462L11.1868 8.54599C9.91134 8.90999 9.32324 9.463 9.32324 9.463C9.32324 9.463 9.47914 9.379 9.74129 9.26C10.4995 8.931 11.1017 8.84 11.3497 8.819C11.3923 8.812 11.4277 8.805 11.4702 8.805C11.9024 8.749 12.3913 8.735 12.9015 8.791C13.5747 8.868 14.2974 9.064 15.0343 9.463C15.0343 9.463 14.4745 8.938 13.27 8.574L13.3692 8.462C13.3692 8.462 14.3399 8.44099 15.3603 9.19699C15.3603 9.19699 16.3806 11.024 16.3806 13.278C16.3806 13.278 15.7783 14.293 14.2124 14.342ZM11.1171 11.2C10.7164 11.2 10.4 11.5603 10.4 12C10.4 12.4396 10.7234 12.8 11.1171 12.8C11.5178 12.8 11.8341 12.4396 11.8341 12C11.8411 11.5603 11.5178 11.2 11.1171 11.2ZM13.683 11.2C13.2823 11.2 12.9659 11.5603 12.9659 12C12.9659 12.4396 13.2893 12.8 13.683 12.8C14.0837 12.8 14.4 12.4396 14.4 12C14.4 11.5603 14.0837 11.2 13.683 11.2Z"  fill= 'rgb(92, 83, 155)'/>
</svg>
