<svg width="22" height="24" viewBox="0 0 22 24" fill="none" xmlns="http://www.w3.org/2000/svg">
<path d="M9.50112 0.326195C10.2544 -0.108732 11.1826 -0.108732 11.9359 0.326195L20.2196 5.10882C20.9729 5.54375 21.437 6.34752 21.437 7.21738V16.7826C21.437 17.6525 20.9729 18.4563 20.2196 18.8912L11.9359 23.6738C11.1826 24.1087 10.2544 24.1087 9.50112 23.6738L1.21738 18.8912C0.464061 18.4563 0 17.6525 0 16.7826V7.21738C0 6.34752 0.464061 5.54375 1.21738 5.10882L9.50112 0.326195Z" fill="#FF4B56"/>
<path d="M10.6763 7.2522L9.49097 10.9078L5.64612 10.9111L8.75469 13.17L7.56937 16.8289C8.37047 16.2421 9.82117 15.1903 10.6779 14.5699L13.7898 16.8272L12.6012 13.1717L15.7098 10.9094H11.8682L10.6763 7.2522ZM10.6763 9.7552L11.0543 10.9078L10.3015 10.9094L10.6763 9.7552ZM9.23839 11.6811L9.00727 12.3984L8.02501 11.6844L9.23839 11.6811ZM10.0506 11.6811H11.3053L11.6932 12.8749L10.6779 13.6136L9.66266 12.8749L10.0506 11.6811ZM12.1175 11.6811H13.3292L12.3503 12.3984L12.1175 11.6811ZM9.41173 13.6499L10.0225 14.0901L9.04029 14.8041L9.41173 13.6499ZM11.9475 13.6499L12.3189 14.8041L11.3383 14.0917V14.0901L11.9475 13.6499Z" fill="#5B8150"/>
</svg>
