<svg width="21" height="20" viewBox="0 0 21 20" fill="none" xmlns="http://www.w3.org/2000/svg">
<g clip-path="url(#clip0_1_62)">
<path d="M0.437012 9.41406H4.59271C4.63119 7.94707 4.81057 6.56504 5.10971 5.3125H1.65275C0.991113 6.54746 0.523496 7.93906 0.437012 9.41406H0.437012Z" fill="black"/>
<path d="M4.59271 10.5859H0.437012C0.523496 12.0609 0.991113 13.4525 1.65275 14.6875H5.10975C4.81061 13.435 4.63119 12.0529 4.59271 10.5859Z" fill="black"/>
<path d="M9.85103 9.41406V5.3125H6.3213C6.0006 6.55375 5.80638 7.94836 5.76392 9.41406H9.85103Z" fill="black"/>
<path d="M9.85112 4.14062V0C8.56804 0.358359 7.43147 1.99777 6.6814 4.14062H9.85112Z" fill="black"/>
<path d="M9.85112 20V15.8594H6.6814C7.43147 18.0022 8.56804 19.6416 9.85112 20Z" fill="black"/>
<path d="M11.0229 0V4.14062H14.1927C13.4426 1.99777 12.306 0.358359 11.0229 0Z" fill="black"/>
<path d="M15.1101 9.41406C15.0676 7.94836 14.8734 6.55375 14.5527 5.3125H11.0229V9.41406H15.1101Z" fill="black"/>
<path d="M9.85103 10.5859H5.76392C5.80642 12.0517 6.0006 13.4462 6.3213 14.6875H9.85103V10.5859Z" fill="black"/>
<path d="M15.4374 4.14063H18.4745C17.2616 2.48153 15.5542 1.07989 13.5649 0.419655C14.3294 1.32215 14.9688 2.6793 15.4374 4.14063Z" fill="black"/>
<path d="M5.43652 15.8594H2.39941C3.61227 17.5185 5.31973 18.9201 7.30895 19.5804C6.54445 18.6779 5.90504 17.3207 5.43652 15.8594Z" fill="black"/>
<path d="M5.43652 4.14063C5.905 2.6793 6.54445 1.32215 7.30891 0.419655C5.31973 1.07989 3.61227 2.48153 2.39941 4.14063H5.43652Z" fill="black"/>
<path d="M15.4373 15.8594C14.9688 17.3207 14.3294 18.6779 13.5649 19.5804C15.5541 18.9201 17.2616 17.5185 18.4745 15.8594H15.4373Z" fill="black"/>
<path d="M11.0229 10.5859V14.6875H14.5527C14.8734 13.4462 15.0676 12.0517 15.1101 10.5859H11.0229Z" fill="black"/>
<path d="M15.7644 5.3125C16.0635 6.56504 16.2429 7.94707 16.2814 9.41406H20.4371C20.3506 7.93906 19.883 6.54746 19.2214 5.3125H15.7644Z" fill="black"/>
<path d="M11.0229 15.8594V20C12.306 19.6416 13.4426 18.0022 14.1927 15.8594H11.0229Z" fill="black"/>
<path d="M20.4371 10.5859H16.2814C16.2429 12.0529 16.0635 13.435 15.7644 14.6875H19.2214C19.883 13.4525 20.3506 12.0609 20.4371 10.5859Z" fill="black"/>
</g>
<defs>
<clipPath id="clip0_1_62">
<rect width="20" height="20" fill="white" transform="translate(0.437012)"/>
</clipPath>
</defs>
</svg>
