<svg width="24" height="24" viewBox="0 0 24 24" fill="none" xmlns="http://www.w3.org/2000/svg">
<g clip-path="url(#clip0_1_27)">
<path fill-rule="evenodd" clip-rule="evenodd" d="M11.549 18.906C15.359 18.906 18.455 15.816 18.455 12C18.4541 10.6153 18.0371 9.26288 17.2581 8.11811C16.4791 6.97335 15.3741 6.0891 14.0864 5.58009C12.7987 5.07108 11.3877 4.96081 10.0365 5.26357C8.68537 5.56633 7.45637 6.26816 6.50899 7.278C5.58949 8.26128 4.97728 9.49177 4.7476 10.8183C4.51792 12.1447 4.68078 13.5094 5.21615 14.7446C5.75153 15.9798 6.6361 17.0317 7.76116 17.771C8.88623 18.5103 10.2028 18.9048 11.549 18.906ZM9.13899 14.733C9.20199 14.508 9.26099 14.278 9.33499 14.057C9.41799 13.797 9.48699 13.763 9.72699 13.891C10.138 14.106 10.569 14.224 11.024 14.282C11.318 14.317 11.607 14.287 11.877 14.17C12.387 13.95 12.464 13.362 12.033 13.004C11.8863 12.8863 11.7233 12.7907 11.549 12.72C11.103 12.524 10.638 12.377 10.221 12.122C9.54099 11.716 9.10399 11.152 9.15799 10.325C9.21799 9.385 9.74599 8.802 10.608 8.488C10.961 8.361 10.966 8.366 10.966 7.993V7.616C10.971 7.337 11.02 7.288 11.299 7.278C11.387 7.273 11.47 7.278 11.559 7.278C12.151 7.278 12.151 7.278 12.156 7.871C12.156 8.292 12.156 8.292 12.577 8.356C12.896 8.405 13.204 8.498 13.498 8.63C13.66 8.704 13.723 8.816 13.674 8.988C13.601 9.242 13.532 9.502 13.449 9.757C13.371 9.997 13.297 10.031 13.067 9.918C12.6137 9.69647 12.1105 9.59687 11.607 9.629C11.4729 9.63119 11.3404 9.65797 11.216 9.708C10.775 9.898 10.701 10.388 11.078 10.692C11.269 10.844 11.485 10.957 11.71 11.05C12.102 11.211 12.494 11.368 12.866 11.574C14.051 12.23 14.37 13.714 13.537 14.728C13.2397 15.088 12.8378 15.3466 12.387 15.468C12.185 15.522 12.097 15.629 12.107 15.835C12.117 16.041 12.107 16.242 12.107 16.447C12.107 16.629 12.014 16.727 11.833 16.731C11.613 16.736 11.392 16.736 11.176 16.731C10.986 16.727 10.892 16.619 10.892 16.433C10.892 16.286 10.887 16.133 10.887 15.987C10.882 15.659 10.873 15.644 10.559 15.595C10.153 15.531 9.75599 15.438 9.38899 15.257C9.08499 15.11 9.05599 15.037 9.13899 14.733Z" fill="#FF4B56"/>
<path fill-rule="evenodd" clip-rule="evenodd" d="M19.028 19.484C15.041 23.471 8.63899 23.604 4.49099 19.891H5.82299V18.471H2.04199V22.25H3.46199V20.874C5.67089 22.889 8.55408 24.0042 11.544 24C14.62 24 17.691 22.83 20.032 20.488L20.536 19.984L19.532 18.98L19.028 19.484ZM19.635 1.749V3.125C17.4259 1.11032 14.5428 -0.00449463 11.553 -1.73115e-06C8.47799 -1.73115e-06 5.40699 1.17 3.06499 3.512L2.56499 4.012L3.56999 5.015L4.07399 4.51C8.06099 0.523998 14.463 0.390998 18.611 4.104H17.28V5.524H21.06V1.75H19.635V1.749Z" fill="#FF4B56"/>
</g>
<defs>
<clipPath id="clip0_1_27">
<rect width="24" height="24" fill="white"/>
</clipPath>
</defs>
</svg>
