<svg width="35" height="35" viewBox="0 0 35 35" fill="none" xmlns="http://www.w3.org/2000/svg">
<g clip-path="url(#clip0_219_949)">
<path d="M17.3057 0C7.64061 0 -0.194336 7.83494 -0.194336 17.5C-0.194336 27.1651 7.64061 35 17.3057 35C26.9707 35 34.8057 27.1651 34.8057 17.5C34.8057 7.83494 26.9707 0 17.3057 0ZM21.9338 24.4922C21.9338 24.4922 21.3346 23.7763 20.8352 23.1439C23.0161 22.5279 23.8483 21.1629 23.8483 21.1629C23.1658 21.6125 22.5164 21.9287 21.9338 22.1453C21.1016 22.4949 20.3024 22.7278 19.52 22.8612C17.9217 23.1611 16.4567 23.0778 15.2084 22.8445C14.2595 22.6613 13.4436 22.3949 12.7611 22.1286C12.3781 21.9788 11.9619 21.7957 11.5458 21.5627C11.4961 21.5293 11.4459 21.5129 11.3961 21.4795C11.3627 21.4628 11.3463 21.4461 11.3296 21.4297C11.0298 21.2633 10.8633 21.1466 10.8633 21.1466C10.8633 21.1466 11.6625 22.4786 13.7765 23.1109C13.2772 23.7436 12.6612 24.4926 12.6612 24.4926C8.98188 24.3756 7.58344 21.9617 7.58344 21.9617C7.58344 16.6013 9.98055 12.2562 9.98055 12.2562C12.3777 10.4584 14.6585 10.5082 14.6585 10.5082L14.8249 10.7081C11.8282 11.5737 10.4464 12.8889 10.4464 12.8889C10.4464 12.8889 10.8128 12.6891 11.4288 12.4063C13.2103 11.6239 14.6251 11.4077 15.2076 11.3575C15.3076 11.3408 15.3908 11.3241 15.4907 11.3241C16.5061 11.1911 17.6549 11.1576 18.8534 11.2906C20.435 11.4738 22.1329 11.9397 23.8643 12.8889C23.8643 12.8889 22.5491 11.6402 19.7191 10.7746L19.9521 10.5082C19.9521 10.5082 22.2329 10.4584 24.63 12.2562C24.63 12.2562 27.0271 16.6013 27.0271 21.9617C27.0279 21.9617 25.6127 24.3756 21.9338 24.4922Z" fill="#9098A1"/>
<path d="M14.1964 16.7227C13.2473 16.7227 12.498 17.5551 12.498 18.5712C12.498 19.5869 13.264 20.4197 14.1964 20.4197C15.1456 20.4197 15.8948 19.5873 15.8948 18.5712C15.9115 17.5555 15.1456 16.7227 14.1964 16.7227ZM20.2745 16.7227C19.3254 16.7227 18.5762 17.5551 18.5762 18.5712C18.5762 19.5869 19.3421 20.4197 20.2745 20.4197C21.2237 20.4197 21.9729 19.5873 21.9729 18.5712C21.9729 17.5555 21.2237 16.7227 20.2745 16.7227Z" fill="#9098A1"/>
</g>
<defs>
<clipPath id="clip0_219_949">
<rect width="35" height="35" fill="white"/>
</clipPath>
</defs>
</svg>
