<svg width="35" height="35" viewBox="0 0 35 35" fill="none" xmlns="http://www.w3.org/2000/svg">
<path fill-rule="evenodd" clip-rule="evenodd" d="M17.5 35C27.165 35 35 27.165 35 17.5C35 7.83502 27.165 0 17.5 0C7.83502 0 0 7.83502 0 17.5C0 27.165 7.83502 35 17.5 35ZM24.6365 7.53725C23.9557 7.273 23.219 7.11637 22.1532 7.06738C20.8337 7.007 20.3674 7 17.5 7C14.6317 7 14.1662 7.007 12.8467 7.06738C11.781 7.11637 11.0451 7.273 10.3626 7.53725C9.71747 7.7787 9.13342 8.1593 8.652 8.652C8.15919 9.13368 7.77858 9.71803 7.53725 10.3635C7.273 11.0442 7.11637 11.781 7.06738 12.8467C7.007 14.1662 7 14.6326 7 17.5C7 20.3682 7.007 20.8337 7.06738 22.1532C7.11637 23.219 7.273 23.9549 7.53725 24.6365C7.77858 25.282 8.15919 25.8663 8.652 26.348C9.1334 26.8407 9.71746 27.2213 10.3626 27.4627C11.0442 27.727 11.781 27.8836 12.8467 27.9326C14.1671 27.993 14.6326 28 17.5 28C20.3674 28 20.832 27.993 22.1532 27.9326C23.219 27.8836 23.9549 27.727 24.6365 27.4627C25.282 27.2214 25.8663 26.8408 26.348 26.348C26.8407 25.8666 27.2213 25.2825 27.4627 24.6374C27.727 23.9557 27.8836 23.219 27.9326 22.1532C27.993 20.832 28 20.3665 28 17.5C28 14.6335 27.993 14.168 27.9326 12.8467C27.8836 11.781 27.727 11.0451 27.4627 10.3635C27.2214 9.71803 26.8408 9.13368 26.348 8.652C25.8663 8.15919 25.282 7.77858 24.6365 7.53725ZM12.9526 9.39837C14.2309 9.33976 14.6649 9.33362 17.4991 9.33362C20.3341 9.33362 20.7681 9.33975 22.0465 9.39837C22.8576 9.43512 23.345 9.53925 23.7913 9.7125C24.1351 9.8362 24.4456 10.0377 24.6986 10.3014C24.9622 10.5544 25.1638 10.8649 25.2875 11.2087C25.4616 11.655 25.5649 12.1415 25.6016 12.9526C25.6602 14.2319 25.6664 14.6659 25.6664 17.5C25.6664 20.3341 25.6602 20.7681 25.6016 22.0474C25.5649 22.8585 25.4607 23.3459 25.2875 23.7921C25.1396 24.1727 24.9821 24.4151 24.6986 24.6986C24.4151 24.9812 24.1727 25.1387 23.7921 25.2875C23.345 25.4616 22.8585 25.5649 22.0474 25.6016C20.7681 25.6602 20.335 25.6664 17.5 25.6664C14.6659 25.6664 14.2319 25.6602 12.9526 25.6016C12.1415 25.5649 11.6541 25.4607 11.2079 25.2875C10.8272 25.1396 10.5849 24.9821 10.3014 24.6986C10.0188 24.4151 9.86125 24.1727 9.7125 23.7913C9.53837 23.345 9.43512 22.8585 9.39837 22.0474C9.33975 20.769 9.33362 20.335 9.33362 17.5C9.33362 14.665 9.33975 14.231 9.39837 12.9526C9.43512 12.1415 9.53925 11.6541 9.7125 11.2079C9.86037 10.8272 10.0179 10.5849 10.3014 10.3014C10.5849 10.0188 10.8272 9.86125 11.2079 9.7125C11.655 9.53837 12.1415 9.43512 12.9526 9.39837ZM13.6503 21.3497C14.6713 22.3707 16.0561 22.9442 17.5 22.9442C18.9439 22.9442 20.3287 22.3707 21.3497 21.3497C22.3707 20.3287 22.9442 18.9439 22.9442 17.5C22.9442 16.0561 22.3707 14.6713 21.3497 13.6503C20.3287 12.6293 18.9439 12.0557 17.5 12.0557C16.0561 12.0557 14.6713 12.6293 13.6503 13.6503C12.6293 14.6713 12.0557 16.0561 12.0557 17.5C12.0557 18.9439 12.6293 20.3287 13.6503 21.3497ZM19.7002 19.7002C19.1166 20.2837 18.3252 20.6115 17.5 20.6115C16.6748 20.6115 15.8834 20.2837 15.2998 19.7002C14.7163 19.1166 14.3885 18.3252 14.3885 17.5C14.3885 16.6748 14.7163 15.8834 15.2998 15.2998C15.8834 14.7163 16.6748 14.3885 17.5 14.3885C18.3252 14.3885 19.1166 14.7163 19.7002 15.2998C20.2837 15.8834 20.6115 16.6748 20.6115 17.5C20.6115 18.3252 20.2837 19.1166 19.7002 19.7002ZM22.1192 12.8804C22.338 13.0992 22.6348 13.2221 22.9442 13.2221C23.2537 13.2221 23.5505 13.0992 23.7693 12.8804C23.9881 12.6616 24.1111 12.3648 24.1111 12.0553C24.1111 11.7459 23.9881 11.4491 23.7693 11.2303C23.5505 11.0114 23.2537 10.8885 22.9442 10.8885C22.6348 10.8885 22.338 11.0114 22.1192 11.2303C21.9004 11.4491 21.7774 11.7459 21.7774 12.0553C21.7774 12.3648 21.9004 12.6616 22.1192 12.8804Z" fill="#9098A1"/>
</svg>
