<svg width="123" height="26" viewBox="0 0 123 26" fill="none" xmlns="http://www.w3.org/2000/svg">
<path d="M37.4453 7.77148V17H35.5449V11.4219L33.1934 13.9922H32.6465L30.2676 11.4219V17H28.3672V7.77148H29.0098L32.9199 11.8457L36.8027 7.77148H37.4453Z" fill="#0A0A0A"/>
<path d="M43.2318 9.91797C43.9063 9.91797 44.5215 10.082 45.0775 10.4102C45.6335 10.7292 46.0801 11.1667 46.4173 11.7227C46.7637 12.2695 46.9369 12.8848 46.9369 13.5684C46.9369 14.252 46.7637 14.8672 46.4173 15.4141C46.0801 15.9609 45.6335 16.3984 45.0775 16.7266C44.5215 17.0456 43.9063 17.2051 43.2318 17.2051C42.5664 17.2051 41.9512 17.0456 41.3861 16.7266C40.8301 16.3984 40.3835 15.9609 40.0463 15.4141C39.709 14.8672 39.5404 14.252 39.5404 13.5684C39.5404 12.8848 39.709 12.2695 40.0463 11.7227C40.3835 11.1667 40.8301 10.7292 41.3861 10.4102C41.9512 10.082 42.5664 9.91797 43.2318 9.91797ZM43.2318 11.5996C42.9037 11.5996 42.5983 11.6771 42.3158 11.832C42.0332 11.987 41.8054 12.2103 41.6322 12.502C41.4681 12.7936 41.3861 13.1491 41.3861 13.5684C41.3861 13.9876 41.4681 14.3431 41.6322 14.6348C41.8054 14.9264 42.0332 15.1497 42.3158 15.3047C42.5983 15.4505 42.9037 15.5234 43.2318 15.5234C43.5599 15.5234 43.8653 15.4505 44.1478 15.3047C44.4304 15.1497 44.6582 14.9264 44.8314 14.6348C45.0046 14.3431 45.0912 13.9876 45.0912 13.5684C45.0912 13.1491 45.0046 12.7936 44.8314 12.502C44.6582 12.2103 44.4304 11.987 44.1478 11.832C43.8653 11.6771 43.5599 11.5996 43.2318 11.5996Z" fill="#0A0A0A"/>
<path d="M53.0652 12.0371C52.7735 11.873 52.4682 11.791 52.1491 11.791C51.7481 11.791 51.4154 11.9232 51.1511 12.1875C50.8868 12.4427 50.6544 12.7617 50.4538 13.1445V17H48.7175V10.0957H50.4538V11.3945C50.6908 10.9844 50.9688 10.6426 51.2878 10.3691C51.6159 10.0957 51.9851 9.95898 52.3952 9.95898C52.6413 9.95898 52.8646 10 53.0652 10.082V12.0371Z" fill="#0A0A0A"/>
<path d="M57.7579 9.91797C58.4324 9.91797 59.0476 10.082 59.6036 10.4102C60.1596 10.7292 60.6062 11.1667 60.9434 11.7227C61.2898 12.2695 61.463 12.8848 61.463 13.5684C61.463 14.252 61.2898 14.8672 60.9434 15.4141C60.6062 15.9609 60.1596 16.3984 59.6036 16.7266C59.0476 17.0456 58.4324 17.2051 57.7579 17.2051C57.0925 17.2051 56.4773 17.0456 55.9122 16.7266C55.3562 16.3984 54.9096 15.9609 54.5723 15.4141C54.2351 14.8672 54.0665 14.252 54.0665 13.5684C54.0665 12.8848 54.2351 12.2695 54.5723 11.7227C54.9096 11.1667 55.3562 10.7292 55.9122 10.4102C56.4773 10.082 57.0925 9.91797 57.7579 9.91797ZM57.7579 11.5996C57.4298 11.5996 57.1244 11.6771 56.8419 11.832C56.5593 11.987 56.3315 12.2103 56.1583 12.502C55.9942 12.7936 55.9122 13.1491 55.9122 13.5684C55.9122 13.9876 55.9942 14.3431 56.1583 14.6348C56.3315 14.9264 56.5593 15.1497 56.8419 15.3047C57.1244 15.4505 57.4298 15.5234 57.7579 15.5234C58.086 15.5234 58.3914 15.4505 58.6739 15.3047C58.9565 15.1497 59.1843 14.9264 59.3575 14.6348C59.5307 14.3431 59.6173 13.9876 59.6173 13.5684C59.6173 13.1491 59.5307 12.7936 59.3575 12.502C59.1843 12.2103 58.9565 11.987 58.6739 11.832C58.3914 11.6771 58.086 11.5996 57.7579 11.5996Z" fill="#0A0A0A"/>
<path d="M66.3881 9.91797C66.8985 9.91797 67.3178 10 67.6459 10.1641C67.9741 10.3281 68.2338 10.4876 68.4252 10.6426V12.2422C68.1883 12.069 67.9194 11.9232 67.6186 11.8047C67.3269 11.6862 66.9669 11.627 66.5385 11.627C66.1922 11.627 65.8686 11.7135 65.5678 11.8867C65.2761 12.0599 65.0437 12.2923 64.8705 12.584C64.6974 12.8757 64.6108 13.2083 64.6108 13.582C64.6108 14.1471 64.7931 14.612 65.1577 14.9766C65.5222 15.3411 65.9825 15.5234 66.5385 15.5234C66.9669 15.5234 67.3269 15.4688 67.6186 15.3594C67.9194 15.2409 68.1883 15.0951 68.4252 14.9219V16.5078C68.2338 16.6719 67.9741 16.8314 67.6459 16.9863C67.3178 17.1322 66.8985 17.2051 66.3881 17.2051C65.6863 17.2051 65.062 17.041 64.5151 16.7129C63.9773 16.3757 63.5489 15.9336 63.2299 15.3867C62.92 14.8307 62.7651 14.2292 62.7651 13.582C62.7651 13.099 62.8517 12.6387 63.0248 12.2012C63.2071 11.7637 63.4623 11.3763 63.7905 11.0391C64.1186 10.6927 64.5014 10.4193 64.9389 10.2188C65.3855 10.0182 65.8686 9.91797 66.3881 9.91797Z" fill="#0A0A0A"/>
<path d="M73.2547 9.91797C73.7651 9.91797 74.1844 10 74.5125 10.1641C74.8406 10.3281 75.1004 10.4876 75.2918 10.6426V12.2422C75.0548 12.069 74.7859 11.9232 74.4852 11.8047C74.1935 11.6862 73.8335 11.627 73.4051 11.627C73.0587 11.627 72.7352 11.7135 72.4344 11.8867C72.1427 12.0599 71.9103 12.2923 71.7371 12.584C71.5639 12.8757 71.4773 13.2083 71.4773 13.582C71.4773 14.1471 71.6596 14.612 72.0242 14.9766C72.3888 15.3411 72.8491 15.5234 73.4051 15.5234C73.8335 15.5234 74.1935 15.4688 74.4852 15.3594C74.7859 15.2409 75.0548 15.0951 75.2918 14.9219V16.5078C75.1004 16.6719 74.8406 16.8314 74.5125 16.9863C74.1844 17.1322 73.7651 17.2051 73.2547 17.2051C72.5529 17.2051 71.9285 17.041 71.3816 16.7129C70.8439 16.3757 70.4155 15.9336 70.0965 15.3867C69.7866 14.8307 69.6316 14.2292 69.6316 13.582C69.6316 13.099 69.7182 12.6387 69.8914 12.2012C70.0737 11.7637 70.3289 11.3763 70.657 11.0391C70.9852 10.6927 71.368 10.4193 71.8055 10.2188C72.2521 10.0182 72.7352 9.91797 73.2547 9.91797Z" fill="#0A0A0A"/>
<path d="M80.1896 9.91797C80.8641 9.91797 81.4793 10.082 82.0353 10.4102C82.5913 10.7292 83.0379 11.1667 83.3752 11.7227C83.7215 12.2695 83.8947 12.8848 83.8947 13.5684C83.8947 14.252 83.7215 14.8672 83.3752 15.4141C83.0379 15.9609 82.5913 16.3984 82.0353 16.7266C81.4793 17.0456 80.8641 17.2051 80.1896 17.2051C79.5242 17.2051 78.909 17.0456 78.3439 16.7266C77.7879 16.3984 77.3413 15.9609 77.0041 15.4141C76.6668 14.8672 76.4982 14.252 76.4982 13.5684C76.4982 12.8848 76.6668 12.2695 77.0041 11.7227C77.3413 11.1667 77.7879 10.7292 78.3439 10.4102C78.909 10.082 79.5242 9.91797 80.1896 9.91797ZM80.1896 11.5996C79.8615 11.5996 79.5561 11.6771 79.2736 11.832C78.991 11.987 78.7632 12.2103 78.59 12.502C78.4259 12.7936 78.3439 13.1491 78.3439 13.5684C78.3439 13.9876 78.4259 14.3431 78.59 14.6348C78.7632 14.9264 78.991 15.1497 79.2736 15.3047C79.5561 15.4505 79.8615 15.5234 80.1896 15.5234C80.5177 15.5234 80.8231 15.4505 81.1056 15.3047C81.3882 15.1497 81.616 14.9264 81.7892 14.6348C81.9624 14.3431 82.049 13.9876 82.049 13.5684C82.049 13.1491 81.9624 12.7936 81.7892 12.502C81.616 12.2103 81.3882 11.987 81.1056 11.832C80.8231 11.6771 80.5177 11.5996 80.1896 11.5996Z" fill="#0A0A0A"/>
<path d="M88.478 7.66211C89.0067 7.66211 89.4898 7.73503 89.9273 7.88086C90.3648 8.02669 90.7339 8.19531 91.0347 8.38672V10.2598C90.7066 10.0592 90.3557 9.8724 89.982 9.69922C89.6083 9.52604 89.1844 9.43945 88.7105 9.43945C88.4735 9.43945 88.2365 9.47591 87.9995 9.54883C87.7717 9.62174 87.5803 9.73112 87.4253 9.87695C87.2795 10.0228 87.2066 10.2096 87.2066 10.4375C87.2066 10.7383 87.3387 10.9661 87.603 11.1211C87.8674 11.276 88.1909 11.431 88.5737 11.5859L89.6948 12.0508C90.3329 12.3242 90.8023 12.6569 91.103 13.0488C91.4038 13.4408 91.5542 13.8874 91.5542 14.3887C91.5542 14.9355 91.3947 15.4186 91.0757 15.8379C90.7658 16.248 90.3465 16.5716 89.8179 16.8086C89.2984 17.0456 88.7196 17.1641 88.0816 17.1641C87.5438 17.1641 87.0288 17.0729 86.5366 16.8906C86.0445 16.7083 85.6161 16.485 85.2515 16.2207V14.3477C85.6525 14.6393 86.0946 14.8854 86.5777 15.0859C87.0607 15.2865 87.5757 15.3867 88.1226 15.3867C88.5054 15.3867 88.8335 15.3138 89.107 15.168C89.3804 15.013 89.5171 14.7852 89.5171 14.4844C89.5171 14.2474 89.4032 14.056 89.1753 13.9102C88.9566 13.7552 88.715 13.6276 88.4507 13.5273L87.0425 12.9805C86.3316 12.707 85.8485 12.3516 85.5933 11.9141C85.3472 11.4674 85.2241 10.9753 85.2241 10.4375C85.2241 9.88151 85.3745 9.39844 85.6753 8.98828C85.9852 8.56901 86.3862 8.24544 86.8784 8.01758C87.3706 7.7806 87.9038 7.66211 88.478 7.66211Z" fill="#0A0A0A"/>
<path d="M102.905 10.0957L100.513 17H99.2548L97.6415 12.5293L96.0282 17H94.7567L92.3778 10.0957H94.2645L95.536 14.1836L97.0263 10.0957H98.2704L99.747 14.1836L101.018 10.0957H102.905Z" fill="#0A0A0A"/>
<path d="M106.709 9.91797C107.083 9.91797 107.461 10.0046 107.844 10.1777C108.227 10.3509 108.546 10.5833 108.801 10.875V10.0957H110.537V17H108.801V15.8379C108.6 16.2116 108.309 16.5352 107.926 16.8086C107.543 17.0729 107.097 17.2051 106.586 17.2051C106.03 17.2051 105.515 17.0638 105.041 16.7812C104.576 16.4987 104.203 16.0885 103.92 15.5508C103.638 15.013 103.496 14.3613 103.496 13.5957C103.496 12.8301 103.638 12.1738 103.92 11.627C104.212 11.0801 104.599 10.6608 105.082 10.3691C105.574 10.0684 106.117 9.91797 106.709 9.91797ZM107.065 11.6133C106.7 11.6133 106.386 11.709 106.121 11.9004C105.866 12.0827 105.666 12.3242 105.52 12.625C105.374 12.9258 105.301 13.2493 105.301 13.5957C105.301 14.1152 105.456 14.5573 105.766 14.9219C106.085 15.2865 106.504 15.4688 107.024 15.4688C107.334 15.4688 107.621 15.3867 107.885 15.2227C108.158 15.0586 108.377 14.8307 108.541 14.5391C108.714 14.2383 108.801 13.8783 108.801 13.459V12.4746C108.555 12.2103 108.286 12.0007 107.994 11.8457C107.712 11.6908 107.402 11.6133 107.065 11.6133Z" fill="#0A0A0A"/>
<path d="M116.761 9.91797C117.308 9.91797 117.814 10.0592 118.279 10.3418C118.753 10.6152 119.131 11.0208 119.414 11.5586C119.705 12.0872 119.851 12.7344 119.851 13.5C119.851 14.2656 119.705 14.9264 119.414 15.4824C119.131 16.0384 118.744 16.4668 118.252 16.7676C117.768 17.0592 117.231 17.2051 116.638 17.2051C116.255 17.2051 115.873 17.1139 115.49 16.9316C115.116 16.7402 114.802 16.5033 114.546 16.2207V20.2812H112.81V10.0957H114.546V11.2578C114.747 10.8841 115.039 10.5697 115.421 10.3145C115.804 10.0501 116.251 9.91797 116.761 9.91797ZM116.324 11.6543C116.014 11.6543 115.722 11.7363 115.449 11.9004C115.175 12.0553 114.952 12.2786 114.779 12.5703C114.615 12.862 114.537 13.2129 114.546 13.623V14.6211C114.793 14.8763 115.057 15.0905 115.339 15.2637C115.631 15.4277 115.946 15.5098 116.283 15.5098C116.638 15.5098 116.948 15.4141 117.213 15.2227C117.477 15.0312 117.682 14.7852 117.828 14.4844C117.974 14.1745 118.046 13.8464 118.046 13.5C118.046 12.9805 117.887 12.543 117.568 12.1875C117.258 11.832 116.843 11.6543 116.324 11.6543Z" fill="#0A0A0A"/>
<path d="M10.2929 0.353378C11.109 -0.117793 12.1144 -0.117793 12.9305 0.353378L21.9046 5.53455C22.7207 6.00572 23.2234 6.87648 23.2234 7.81882V18.1812C23.2234 19.1235 22.7207 19.9943 21.9046 20.4654L12.9305 25.6466C12.1144 26.1178 11.109 26.1178 10.2929 25.6466L1.31882 20.4654C0.502733 19.9943 0 19.1235 0 18.1812V7.81882C0 6.87648 0.502733 6.00572 1.31882 5.53455L10.2929 0.353378Z" fill="#FF4B56"/>
<path d="M11.5661 7.85657L10.282 11.8168L6.1167 11.8203L9.48432 14.2675L8.20022 18.2313C9.06809 17.5956 10.6397 16.4562 11.5678 15.7841L14.939 18.2295L13.6514 14.2693L17.019 11.8186H12.8573L11.5661 7.85657ZM11.5661 10.5682L11.9756 11.8168L11.1601 11.8186L11.5661 10.5682ZM10.0083 12.6545L9.75795 13.4316L8.69383 12.6581L10.0083 12.6545ZM10.8882 12.6545H12.2474L12.6677 13.9478L11.5678 14.7481L10.468 13.9478L10.8882 12.6545ZM13.1274 12.6545H14.4401L13.3795 13.4316L13.1274 12.6545ZM10.1961 14.7874L10.8578 15.2643L9.79372 16.0378L10.1961 14.7874ZM12.9431 14.7874L13.3455 16.0378L12.2832 15.2661V15.2643L12.9431 14.7874Z" fill="#5B8150"/>
</svg>
