<svg width="110" height="110" viewBox="0 0 110 110" fill="none" xmlns="http://www.w3.org/2000/svg">
<path d="M199.954 33L197.356 31.5L105.856 189.983L108.454 191.483L199.954 33Z" fill="url(#paint0_linear_219_776)" fill-opacity="0.5"/>
<path d="M192.16 28.5L189.562 27L98.0618 185.483L100.66 186.983L192.16 28.5Z" fill="url(#paint1_linear_219_776)" fill-opacity="0.5"/>
<path d="M184.366 24L181.768 22.5L90.2676 180.983L92.8657 182.483L184.366 24Z" fill="url(#paint2_linear_219_776)" fill-opacity="0.5"/>
<path d="M176.571 19.5001L173.973 18.0001L82.4733 176.483L85.0714 177.983L176.571 19.5001Z" fill="url(#paint3_linear_219_776)" fill-opacity="0.5"/>
<path d="M168.777 15L166.179 13.5L74.6791 171.983L77.2772 173.483L168.777 15Z" fill="url(#paint4_linear_219_776)" fill-opacity="0.5"/>
<path d="M160.983 10.5L158.385 9L66.8849 167.483L69.4829 168.983L160.983 10.5Z" fill="url(#paint5_linear_219_776)" fill-opacity="0.5"/>
<path d="M153.189 6L150.591 4.5L59.0906 162.983L61.6887 164.483L153.189 6Z" fill="url(#paint6_linear_219_776)" fill-opacity="0.5"/>
<path d="M145.395 1.5L142.796 0L51.2964 158.483L53.8945 159.983L145.395 1.5Z" fill="url(#paint7_linear_219_776)" fill-opacity="0.5"/>
<path d="M137.6 -3L135.002 -4.5L43.5022 153.983L46.1003 155.483L137.6 -3Z" fill="url(#paint8_linear_219_776)" fill-opacity="0.5"/>
<path d="M129.806 -7.5L127.208 -9L35.708 149.483L38.3061 150.983L129.806 -7.5Z" fill="url(#paint9_linear_219_776)" fill-opacity="0.5"/>
<path d="M122.012 -11.9999L119.414 -13.4999L27.9137 144.983L30.5118 146.483L122.012 -11.9999Z" fill="url(#paint10_linear_219_776)" fill-opacity="0.5"/>
<path d="M114.218 -16.5L111.62 -18L20.1195 140.483L22.7176 141.983L114.218 -16.5Z" fill="url(#paint11_linear_219_776)" fill-opacity="0.5"/>
<path d="M106.423 -21L103.825 -22.5L12.3253 135.983L14.9234 137.483L106.423 -21Z" fill="url(#paint12_linear_219_776)" fill-opacity="0.5"/>
<path d="M98.6292 -25.5L96.0311 -27L4.53107 131.483L7.12915 132.983L98.6292 -25.5Z" fill="url(#paint13_linear_219_776)" fill-opacity="0.5"/>
<path d="M90.8349 -30L88.2368 -31.5L-3.26318 126.983L-0.6651 128.483L90.8349 -30Z" fill="url(#paint14_linear_219_776)" fill-opacity="0.5"/>
<path d="M83.0406 -34.4999L80.4426 -35.9999L-11.0574 122.483L-8.45935 123.983L83.0406 -34.4999Z" fill="url(#paint15_linear_219_776)" fill-opacity="0.5"/>
<path d="M75.2464 -39L72.6484 -40.5L-18.8517 117.983L-16.2536 119.483L75.2464 -39Z" fill="url(#paint16_linear_219_776)" fill-opacity="0.5"/>
<path d="M67.4522 -43.5L64.8541 -45L-26.6459 113.483L-24.0478 114.983L67.4522 -43.5Z" fill="url(#paint17_linear_219_776)" fill-opacity="0.5"/>
<path d="M59.658 -48L57.0599 -49.5L-34.4401 108.983L-31.842 110.483L59.658 -48Z" fill="url(#paint18_linear_219_776)" fill-opacity="0.5"/>
<path d="M51.8638 -52.5L49.2657 -54L-42.2343 104.483L-39.6362 105.983L51.8638 -52.5Z" fill="url(#paint19_linear_219_776)" fill-opacity="0.5"/>
<path d="M44.0695 -57L41.4715 -58.5L-50.0285 99.9827L-47.4305 101.483L44.0695 -57Z" fill="url(#paint20_linear_219_776)" fill-opacity="0.5"/>
<path d="M36.2753 -61.5L33.6772 -63L-57.8228 95.4827L-55.2247 96.9827L36.2753 -61.5Z" fill="url(#paint21_linear_219_776)" fill-opacity="0.5"/>
<path d="M28.4811 -65.9999L25.883 -67.4999L-65.617 90.9827L-63.0189 92.4827L28.4811 -65.9999Z" fill="url(#paint22_linear_219_776)" fill-opacity="0.5"/>
<path d="M20.6869 -70.5L18.0888 -72L-73.4112 86.4827L-70.8131 87.9827L20.6869 -70.5Z" fill="url(#paint23_linear_219_776)" fill-opacity="0.5"/>
<path d="M12.8926 -75L10.2945 -76.5L-81.2054 81.9827L-78.6074 83.4827L12.8926 -75Z" fill="url(#paint24_linear_219_776)" fill-opacity="0.5"/>
<path d="M5.09839 -79.5L2.50031 -81L-88.9997 77.4827L-86.4016 78.9827L5.09839 -79.5Z" fill="url(#paint25_linear_219_776)" fill-opacity="0.5"/>
<defs>
<linearGradient id="paint0_linear_219_776" x1="282.954" y1="-204.5" x2="0.954081" y2="116.5" gradientUnits="userSpaceOnUse">
<stop stop-color="#C4C4C4"/>
<stop offset="1" stop-color="#C4C4C4" stop-opacity="0"/>
</linearGradient>
<linearGradient id="paint1_linear_219_776" x1="282.954" y1="-204.5" x2="0.954081" y2="116.5" gradientUnits="userSpaceOnUse">
<stop stop-color="#C4C4C4"/>
<stop offset="1" stop-color="#C4C4C4" stop-opacity="0"/>
</linearGradient>
<linearGradient id="paint2_linear_219_776" x1="282.954" y1="-204.5" x2="0.954081" y2="116.5" gradientUnits="userSpaceOnUse">
<stop stop-color="#C4C4C4"/>
<stop offset="1" stop-color="#C4C4C4" stop-opacity="0"/>
</linearGradient>
<linearGradient id="paint3_linear_219_776" x1="282.954" y1="-204.5" x2="0.954081" y2="116.5" gradientUnits="userSpaceOnUse">
<stop stop-color="#C4C4C4"/>
<stop offset="1" stop-color="#C4C4C4" stop-opacity="0"/>
</linearGradient>
<linearGradient id="paint4_linear_219_776" x1="282.954" y1="-204.5" x2="0.954081" y2="116.5" gradientUnits="userSpaceOnUse">
<stop stop-color="#C4C4C4"/>
<stop offset="1" stop-color="#C4C4C4" stop-opacity="0"/>
</linearGradient>
<linearGradient id="paint5_linear_219_776" x1="282.954" y1="-204.5" x2="0.954081" y2="116.5" gradientUnits="userSpaceOnUse">
<stop stop-color="#C4C4C4"/>
<stop offset="1" stop-color="#C4C4C4" stop-opacity="0"/>
</linearGradient>
<linearGradient id="paint6_linear_219_776" x1="282.954" y1="-204.5" x2="0.954081" y2="116.5" gradientUnits="userSpaceOnUse">
<stop stop-color="#C4C4C4"/>
<stop offset="1" stop-color="#C4C4C4" stop-opacity="0"/>
</linearGradient>
<linearGradient id="paint7_linear_219_776" x1="282.954" y1="-204.5" x2="0.954081" y2="116.5" gradientUnits="userSpaceOnUse">
<stop stop-color="#C4C4C4"/>
<stop offset="1" stop-color="#C4C4C4" stop-opacity="0"/>
</linearGradient>
<linearGradient id="paint8_linear_219_776" x1="282.954" y1="-204.5" x2="0.954081" y2="116.5" gradientUnits="userSpaceOnUse">
<stop stop-color="#C4C4C4"/>
<stop offset="1" stop-color="#C4C4C4" stop-opacity="0"/>
</linearGradient>
<linearGradient id="paint9_linear_219_776" x1="282.954" y1="-204.5" x2="0.954081" y2="116.5" gradientUnits="userSpaceOnUse">
<stop stop-color="#C4C4C4"/>
<stop offset="1" stop-color="#C4C4C4" stop-opacity="0"/>
</linearGradient>
<linearGradient id="paint10_linear_219_776" x1="282.954" y1="-204.5" x2="0.954081" y2="116.5" gradientUnits="userSpaceOnUse">
<stop stop-color="#C4C4C4"/>
<stop offset="1" stop-color="#C4C4C4" stop-opacity="0"/>
</linearGradient>
<linearGradient id="paint11_linear_219_776" x1="282.954" y1="-204.5" x2="0.954081" y2="116.5" gradientUnits="userSpaceOnUse">
<stop stop-color="#C4C4C4"/>
<stop offset="1" stop-color="#C4C4C4" stop-opacity="0"/>
</linearGradient>
<linearGradient id="paint12_linear_219_776" x1="282.954" y1="-204.5" x2="0.954081" y2="116.5" gradientUnits="userSpaceOnUse">
<stop stop-color="#C4C4C4"/>
<stop offset="1" stop-color="#C4C4C4" stop-opacity="0"/>
</linearGradient>
<linearGradient id="paint13_linear_219_776" x1="282.954" y1="-204.5" x2="0.954081" y2="116.5" gradientUnits="userSpaceOnUse">
<stop stop-color="#C4C4C4"/>
<stop offset="1" stop-color="#C4C4C4" stop-opacity="0"/>
</linearGradient>
<linearGradient id="paint14_linear_219_776" x1="282.954" y1="-204.5" x2="0.954081" y2="116.5" gradientUnits="userSpaceOnUse">
<stop stop-color="#C4C4C4"/>
<stop offset="1" stop-color="#C4C4C4" stop-opacity="0"/>
</linearGradient>
<linearGradient id="paint15_linear_219_776" x1="282.954" y1="-204.5" x2="0.954081" y2="116.5" gradientUnits="userSpaceOnUse">
<stop stop-color="#C4C4C4"/>
<stop offset="1" stop-color="#C4C4C4" stop-opacity="0"/>
</linearGradient>
<linearGradient id="paint16_linear_219_776" x1="282.954" y1="-204.5" x2="0.954081" y2="116.5" gradientUnits="userSpaceOnUse">
<stop stop-color="#C4C4C4"/>
<stop offset="1" stop-color="#C4C4C4" stop-opacity="0"/>
</linearGradient>
<linearGradient id="paint17_linear_219_776" x1="282.954" y1="-204.5" x2="0.954081" y2="116.5" gradientUnits="userSpaceOnUse">
<stop stop-color="#C4C4C4"/>
<stop offset="1" stop-color="#C4C4C4" stop-opacity="0"/>
</linearGradient>
<linearGradient id="paint18_linear_219_776" x1="282.954" y1="-204.5" x2="0.954081" y2="116.5" gradientUnits="userSpaceOnUse">
<stop stop-color="#C4C4C4"/>
<stop offset="1" stop-color="#C4C4C4" stop-opacity="0"/>
</linearGradient>
<linearGradient id="paint19_linear_219_776" x1="282.954" y1="-204.5" x2="0.954081" y2="116.5" gradientUnits="userSpaceOnUse">
<stop stop-color="#C4C4C4"/>
<stop offset="1" stop-color="#C4C4C4" stop-opacity="0"/>
</linearGradient>
<linearGradient id="paint20_linear_219_776" x1="282.954" y1="-204.5" x2="0.954081" y2="116.5" gradientUnits="userSpaceOnUse">
<stop stop-color="#C4C4C4"/>
<stop offset="1" stop-color="#C4C4C4" stop-opacity="0"/>
</linearGradient>
<linearGradient id="paint21_linear_219_776" x1="282.954" y1="-204.5" x2="0.954081" y2="116.5" gradientUnits="userSpaceOnUse">
<stop stop-color="#C4C4C4"/>
<stop offset="1" stop-color="#C4C4C4" stop-opacity="0"/>
</linearGradient>
<linearGradient id="paint22_linear_219_776" x1="282.954" y1="-204.5" x2="0.954081" y2="116.5" gradientUnits="userSpaceOnUse">
<stop stop-color="#C4C4C4"/>
<stop offset="1" stop-color="#C4C4C4" stop-opacity="0"/>
</linearGradient>
<linearGradient id="paint23_linear_219_776" x1="282.954" y1="-204.5" x2="0.954081" y2="116.5" gradientUnits="userSpaceOnUse">
<stop stop-color="#C4C4C4"/>
<stop offset="1" stop-color="#C4C4C4" stop-opacity="0"/>
</linearGradient>
<linearGradient id="paint24_linear_219_776" x1="282.954" y1="-204.5" x2="0.954081" y2="116.5" gradientUnits="userSpaceOnUse">
<stop stop-color="#C4C4C4"/>
<stop offset="1" stop-color="#C4C4C4" stop-opacity="0"/>
</linearGradient>
<linearGradient id="paint25_linear_219_776" x1="282.954" y1="-204.5" x2="0.954081" y2="116.5" gradientUnits="userSpaceOnUse">
<stop stop-color="#C4C4C4"/>
<stop offset="1" stop-color="#C4C4C4" stop-opacity="0"/>
</linearGradient>
</defs>
</svg>
