<svg width="60" height="60" viewBox="0 0 60 60" fill="none" xmlns="http://www.w3.org/2000/svg">
<circle cx="30" cy="30" r="30" fill="#1E2029"/>
<path d="M30.1775 20.4918C29.4834 19.2664 27.9585 17.4033 25.2269 17.8039C24.6373 17.8912 24.0986 18.1875 23.7092 18.6387C23.3197 19.09 23.1054 19.6661 23.1052 20.2622V24.0016H26.712C26.7374 23.0863 27.1094 22.2149 27.7527 21.5634C28.396 20.9118 29.2627 20.5288 30.1775 20.4918V20.4918Z" fill="#F88D21"/>
<path d="M27.7878 24.0018H32.8543C32.83 23.3461 32.5525 22.7254 32.0801 22.2702C31.6077 21.8149 30.9771 21.5605 30.3211 21.5605C29.665 21.5605 29.0344 21.8149 28.562 22.2702C28.0896 22.7254 27.8121 23.3461 27.7878 24.0018V24.0018Z" fill="#F88D21"/>
<path d="M33.9298 24.0016H37.5316V20.2622C37.5314 19.6661 37.3171 19.09 36.9276 18.6387C36.5381 18.1875 35.9995 17.8912 35.4098 17.8039C32.6784 17.4033 31.1536 19.2661 30.4595 20.4915C31.3752 20.5274 32.2431 20.9099 32.8874 21.5616C33.5317 22.2133 33.9043 23.0855 33.9298 24.0016V24.0016Z" fill="#F88D21"/>
<path d="M21.0151 39.6633C21.0151 40.0863 21.1832 40.4921 21.4823 40.7912C21.7814 41.0904 22.1871 41.2584 22.6102 41.2585H26.71V31.6772H21.0151V39.6633Z" fill="#F88D21"/>
<path d="M40.7527 25.0771H19.8843C19.5536 25.0772 19.2364 25.2086 19.0025 25.4425C18.7687 25.6763 18.6373 25.9935 18.6372 26.3242V29.4451C18.6372 29.7515 18.7588 30.0453 18.9753 30.2622C19.1917 30.479 19.4854 30.6011 19.7918 30.6017H40.8455C41.1519 30.6011 41.4455 30.479 41.6619 30.2622C41.8783 30.0453 41.9999 29.7515 41.9999 29.4451V26.3242C41.9999 26.1604 41.9676 25.9983 41.905 25.847C41.8423 25.6957 41.7504 25.5582 41.6346 25.4424C41.5188 25.3266 41.3813 25.2347 41.23 25.172C41.0787 25.1094 40.9165 25.0771 40.7527 25.0771V25.0771Z" fill="#F88D21"/>
<path d="M34.3167 41.2585H38.0268C38.2363 41.2585 38.4437 41.2172 38.6373 41.1371C38.8309 41.0569 39.0067 40.9394 39.1549 40.7913C39.303 40.6432 39.4205 40.4673 39.5007 40.2738C39.5809 40.0802 39.6221 39.8728 39.6221 39.6633V31.6772H34.3167V41.2585Z" fill="#F88D21"/>
<path d="M33.2412 31.6772H27.7854V41.2585H33.2412V31.6772Z" fill="#F88D21"/>
<path d="M27.1878 39.2447L27.9341 35.0136L30.4231 33.2709L32.539 33.6436L34.2817 36.1326L36.0243 38.6216L35.2779 42.8533L32.7889 44.5959L26.4414 43.4764L27.1878 39.2447Z" fill="white"/>
<path d="M31.3757 42.0407H31.8412C32.3067 42.0407 32.6934 41.6254 32.6934 41.1241C32.6934 40.501 32.4714 40.3793 32.1062 40.2504L31.3829 39.9998V42.0407H31.3757Z" fill="#1E2029"/>
<path d="M30.8173 32C26.8643 32.0143 23.6632 35.2297 23.6775 39.1828C23.6919 43.1358 26.9073 46.3368 30.8603 46.3225C34.8133 46.3082 38.0144 43.0928 38 39.1398C37.9857 35.1868 34.7703 31.9929 30.8173 32ZM32.4572 39.2329C33.0158 39.4262 33.7677 39.8416 33.7677 41.1235C33.7677 42.2263 32.9012 43.1143 31.8414 43.1143H31.3759V43.5296C31.3759 43.8232 31.1324 44.0667 30.8388 44.0667C30.5452 44.0667 30.3017 43.8232 30.3017 43.5296V43.1143H30.0439C28.8694 43.1143 27.917 42.126 27.917 40.9086C27.917 40.615 28.1605 40.3715 28.4541 40.3715C28.7477 40.3715 28.9912 40.615 28.9912 40.9086C28.9912 41.5316 29.4638 42.0401 30.0439 42.0401H30.3017V39.6196L29.2203 39.2329C28.6618 39.0395 27.9098 38.6242 27.9098 37.3423C27.9098 36.2395 28.7764 35.3515 29.8362 35.3515H30.3017V34.9361C30.3017 34.6425 30.5452 34.399 30.8388 34.399C31.1324 34.399 31.3759 34.6425 31.3759 34.9361V35.3515H31.6337C32.8081 35.3515 33.7606 36.3397 33.7606 37.5571C33.7606 37.8508 33.5171 38.0942 33.2235 38.0942C32.9299 38.0942 32.6864 37.8508 32.6864 37.5571C32.6864 36.9341 32.2138 36.4257 31.6337 36.4257H31.3759V38.8462L32.4572 39.2329Z" fill="#1E2029"/>
<path d="M28.9907 37.3496C28.9907 37.9726 29.2127 38.0944 29.5779 38.2233L30.3012 38.4739V36.4258H29.8358C29.3703 36.4258 28.9907 36.8411 28.9907 37.3496Z" fill="#1E2029"/>
<path d="M27.6114 39.2347L28.2711 35.4945L30.4713 33.9541L32.3417 34.2836L33.8821 36.4837L35.4225 38.6839L34.7627 42.4245L32.5626 43.965L26.9516 42.9753L27.6114 39.2347Z" fill="white"/>
<path d="M31.3135 41.7065H31.7249C32.1364 41.7065 32.4782 41.3393 32.4782 40.8962C32.4782 40.3455 32.282 40.2378 31.9592 40.1239L31.3198 39.9023V41.7065H31.3135Z" fill="#F07A3D"/>
<path d="M30.8196 32.8308C27.3253 32.8435 24.4957 35.6858 24.5083 39.1801C24.521 42.6744 27.3633 45.504 30.8576 45.4913C34.3519 45.4787 37.1815 42.6364 37.1689 39.1421C37.1562 35.6478 34.3139 32.8245 30.8196 32.8308ZM32.2692 39.2244C32.763 39.3953 33.4277 39.7624 33.4277 40.8956C33.4277 41.8704 32.6617 42.6554 31.7248 42.6554H31.3134V43.0225C31.3134 43.2821 31.0981 43.4973 30.8386 43.4973C30.5791 43.4973 30.3638 43.2821 30.3638 43.0225V42.6554H30.1359C29.0978 42.6554 28.2559 41.7818 28.2559 40.7057C28.2559 40.4461 28.4711 40.2309 28.7306 40.2309C28.9902 40.2309 29.2054 40.4461 29.2054 40.7057C29.2054 41.2564 29.6232 41.7058 30.1359 41.7058H30.3638V39.5662L29.408 39.2244C28.9142 39.0535 28.2495 38.6863 28.2495 37.5532C28.2495 36.5783 29.0155 35.7934 29.9524 35.7934H30.3638V35.4262C30.3638 35.1667 30.5791 34.9515 30.8386 34.9515C31.0981 34.9515 31.3134 35.1667 31.3134 35.4262V35.7934H31.5413C32.5794 35.7934 33.4213 36.667 33.4213 37.7431C33.4213 38.0026 33.2061 38.2179 32.9466 38.2179C32.687 38.2179 32.4718 38.0026 32.4718 37.7431C32.4718 37.1924 32.054 36.7429 31.5413 36.7429H31.3134V38.8825L32.2692 39.2244Z" fill="#F07A3D"/>
<path d="M29.2051 37.5595C29.2051 38.1103 29.4013 38.2179 29.7242 38.3318L30.3635 38.5534V36.7429H29.952C29.5406 36.7429 29.2051 37.1101 29.2051 37.5595Z" fill="#F07A3D"/>
</svg>
