<svg width="60" height="60" viewBox="0 0 60 60" fill="none" xmlns="http://www.w3.org/2000/svg">
<circle cx="30" cy="30" r="30" fill="#1E2029"/>
<path fill-rule="evenodd" clip-rule="evenodd" d="M21.3194 14.0175C21.2678 14.0302 21.0144 14.0751 20.7563 14.1172C19.733 14.2844 18.4942 14.7965 17.5378 15.4477C17.2988 15.6104 16.8535 15.9855 16.5484 16.2813C14.8897 17.8891 13.9992 19.9968 14 22.3131C14.0012 25.972 16.2616 29.1525 19.6453 30.2563C20.5108 30.5386 21.2115 30.6474 22.164 30.6474C23.5505 30.6474 24.6214 30.3942 25.8166 29.7837C28.1302 28.6022 29.7154 26.4637 30.2109 23.8564C30.3627 23.0569 30.3728 21.7281 30.2332 20.9136C29.9364 19.1815 29.1059 17.5879 27.8613 16.3619C26.672 15.1904 25.432 14.5148 23.7905 14.1442C23.3935 14.0545 21.5524 13.9601 21.3194 14.0175ZM22.601 16.6798C22.8196 16.8552 22.946 17.1619 22.946 17.517C22.946 17.7935 22.9472 17.795 23.2935 17.9414C23.7175 18.1208 24.181 18.5685 24.3878 18.9988C24.5258 19.2858 24.5433 19.413 24.5614 20.2612L24.5816 21.2044L24.3644 21.426C24.1796 21.6145 24.1043 21.6476 23.8604 21.6476C23.6357 21.6476 23.5319 21.6096 23.3816 21.4721C23.1484 21.2589 23.0746 20.9685 23.0726 20.2552C23.0718 19.9633 23.0421 19.6692 23.0067 19.6016C22.8844 19.3685 22.5897 19.2711 22.0857 19.2971C21.652 19.3194 21.6064 19.3356 21.438 19.5279C21.264 19.7267 21.2568 19.7597 21.2568 20.368C21.2568 21.4199 21.3539 21.5247 22.3861 21.5867C23.2086 21.6362 23.6064 21.8065 24.0345 22.2922C24.4775 22.795 24.5726 23.1377 24.5726 24.2327C24.5726 25.0202 24.553 25.2068 24.4372 25.5223C24.2568 26.0144 23.7243 26.5657 23.2705 26.7301L22.946 26.8476V27.1582C22.946 27.6821 22.69 28.0629 22.316 28.0952C21.9797 28.1243 21.8608 28.085 21.6572 27.8773C21.4593 27.6754 21.4445 27.6316 21.4445 27.2491V26.8379L21.2069 26.7653C20.5816 26.5741 19.9638 25.8813 19.816 25.2054C19.7749 25.0173 19.7525 24.5572 19.7648 24.154C19.7865 23.4413 19.7879 23.4357 19.9912 23.2285C20.1671 23.0491 20.239 23.0199 20.5061 23.0199C20.7732 23.0199 20.845 23.0491 21.021 23.2285C21.2223 23.4337 21.2258 23.4475 21.2431 24.0902C21.265 24.9087 21.2864 25.0054 21.4874 25.1955C21.633 25.3331 21.707 25.3497 22.1779 25.3497C22.6775 25.3497 22.715 25.3398 22.8882 25.1631C23.0692 24.9784 23.0711 24.9688 23.0711 24.2412C23.0711 23.5569 23.0606 23.4934 22.9209 23.3277C22.7801 23.1606 22.7303 23.1469 22.1233 23.1073C21.6997 23.0796 21.3527 23.0175 21.1199 22.9277C20.6483 22.7457 20.188 22.2998 19.9631 21.8072C19.805 21.4611 19.786 21.3434 19.7657 20.584C19.7485 19.9369 19.7672 19.6602 19.8471 19.3797C20.0418 18.6964 20.4631 18.2095 21.0885 17.945L21.4445 17.7945V17.452C21.4445 17.2636 21.4871 17.0255 21.5392 16.9228C21.7295 16.5472 22.2791 16.4214 22.601 16.6798ZM33.0071 25.0543C32.6277 25.1604 32.3572 25.3758 31.9108 25.9272C30.5218 27.6431 30.0542 29.6696 30.547 31.8376C30.5987 32.0649 30.641 32.2766 30.641 32.3078C30.641 32.3396 29.669 32.373 28.4357 32.3836C26.2769 32.4023 26.2243 32.4058 25.9404 32.5499C25.4716 32.7879 25.1588 33.1048 24.9349 33.5689C24.7531 33.9456 24.7291 34.0557 24.7307 34.5076C24.7327 35.0877 24.8976 35.5454 25.2537 35.9591L25.453 36.1907L25.3189 36.5944C25.0766 37.3244 25.2541 38.2047 25.7526 38.7456L25.9512 38.961L25.8165 39.3678C25.5712 40.1089 25.7294 40.9239 26.2279 41.4868L26.4583 41.7471L26.3205 42.1329C26.2093 42.4442 26.1884 42.6102 26.2125 42.9928C26.2655 43.8349 26.6769 44.4421 27.4429 44.8086L27.7944 44.9768L31.7155 44.9946C35.002 45.0094 35.7092 44.9969 36.085 44.917C36.376 44.855 36.9012 44.6415 37.5808 44.3087C38.1568 44.0267 38.6609 43.7959 38.701 43.7959C38.7559 43.7959 38.7739 42.3996 38.7739 38.1278V32.4596L38.5706 32.2647C38.0336 31.75 37.203 31.2455 36.6453 31.0953C36.0111 30.9244 35.2501 30.3502 35.1831 29.992C35.1454 29.7904 34.9034 27.2826 34.8553 26.5943C34.8074 25.9103 34.7785 25.8196 34.5083 25.5057C34.15 25.0893 33.5391 24.9056 33.0071 25.0543ZM40.2754 38.7216V44.6257L42.5745 44.6243C45.1326 44.6228 45.1551 44.6194 45.5745 44.1795C46.0264 43.7056 45.9997 44.0474 45.9997 38.7216C45.9997 33.9388 45.9996 33.9343 45.8647 33.6792C45.6879 33.345 45.4397 33.1106 45.0926 32.9504C44.8262 32.8273 44.6893 32.8203 42.5432 32.8189L40.2754 32.8175V38.7216Z" fill="#F88D21"/>
</svg>
